<svg width="292" height="228" viewBox="0 0 292 228" fill="none" xmlns="http://www.w3.org/2000/svg">
<path d="M290.352 214.402C292.109 216.355 292.012 218.309 290.059 220.262C288.691 220.262 287.422 220.164 286.25 219.969C285.273 219.773 284.59 220.359 284.199 221.727C282.246 221.727 280.293 221.824 278.34 222.02C276.387 222.215 274.727 222.215 273.359 222.02C269.844 222.215 266.816 222.508 264.277 222.898C261.934 223.094 259.199 223.094 256.074 222.898C253.535 222.898 251.387 223.289 249.629 224.07C248.262 224.461 247.383 224.559 246.992 224.363C246.602 224.168 246.016 224.266 245.234 224.656C243.867 224.266 242.5 224.07 241.133 224.07C239.766 224.07 238.691 224.363 237.91 224.949C236.738 224.363 235.371 224.07 233.809 224.07C232.441 224.07 230.977 224.168 229.414 224.363C228.047 224.559 226.582 224.852 225.02 225.242C223.652 225.438 222.285 225.34 220.918 224.949C220.137 224.754 219.551 224.363 219.16 223.777C218.77 222.996 218.086 222.605 217.109 222.605C214.57 223.777 212.422 224.363 210.664 224.363C208.906 224.363 206.953 224.656 204.805 225.242C203.438 225.242 201.777 224.949 199.824 224.363C197.871 223.777 196.406 223.68 195.43 224.07C192.891 225.047 191.621 225.34 191.621 224.949C191.621 224.559 191.426 224.363 191.035 224.363C186.543 224.949 182.344 225.633 178.438 226.414C174.727 227 170.039 227.391 164.375 227.586C163.984 226.805 163.496 226.121 162.91 225.535C162.324 224.754 162.031 223.68 162.031 222.312C167.5 221.922 173.066 221.141 178.73 219.969C184.59 218.797 189.961 217.332 194.844 215.574C195.039 212.84 195.234 211.277 195.43 210.887C195.82 210.301 196.016 209.715 196.016 209.129C196.992 207.957 197.578 207.176 197.773 206.785C197.969 206.199 198.164 205.516 198.359 204.734C197.188 204.148 196.504 204.148 196.309 204.734C196.113 205.32 195.625 205.613 194.844 205.613C194.258 204.051 193.965 202.977 193.965 202.391C193.965 201.609 194.062 201.023 194.258 200.633C195.039 201.023 195.723 201.023 196.309 200.633C197.09 200.242 197.676 199.852 198.066 199.461C199.043 197.117 199.531 194.578 199.531 191.844C199.531 188.914 198.75 186.668 197.188 185.105C197.969 184.324 198.75 183.348 199.531 182.176C198.75 180.027 198.652 178.074 199.238 176.316C200.02 174.363 199.922 172.605 198.945 171.043C200.508 167.332 201.094 163.426 200.703 159.324C200.312 155.223 200.605 151.219 201.582 147.312C201.973 143.992 201.875 141.551 201.289 139.988C200.898 138.23 201.094 136.57 201.875 135.008C200.117 134.227 199.141 133.348 198.945 132.371C198.945 131.395 199.238 130.32 199.824 129.148C200.41 127.977 200.996 126.707 201.582 125.34C202.168 123.777 202.266 122.117 201.875 120.359C201.484 119.773 200.996 119.383 200.41 119.188C200.02 118.797 199.629 118.406 199.238 118.016C200.996 115.672 201.777 113.523 201.582 111.57C201.387 109.422 201.582 107.566 202.168 106.004C201.973 103.27 201.777 100.926 201.582 98.9727C201.387 97.0195 200.605 95.3594 199.238 93.9922C200.02 92.625 200.703 91.5508 201.289 90.7695C202.07 89.793 202.559 88.8164 202.754 87.8398C203.145 86.8633 203.145 85.8867 202.754 84.9102C202.559 83.7383 201.973 82.957 200.996 82.5664C203.34 78.8555 204.121 75.3398 203.34 72.0195C203.145 70.8477 202.656 70.0664 201.875 69.6758C201.289 69.0898 200.801 68.3086 200.41 67.332C200.41 66.3555 200.605 65.6719 200.996 65.2812C201.387 64.8906 201.68 64.207 201.875 63.2305C202.266 61.668 202.266 60.0078 201.875 58.25C201.484 56.2969 200.703 55.125 199.531 54.7344C201.094 51.6094 201.289 47.7031 200.117 43.0156C198.555 43.2109 197.383 43.5039 196.602 43.8945C195.82 44.0898 194.844 44.3828 193.672 44.7734C192.891 44.3828 192.305 43.8945 191.914 43.3086C191.719 42.5273 191.328 41.9414 190.742 41.5508C190.938 40.9648 191.23 40.5742 191.621 40.3789C192.207 39.9883 192.695 39.5977 193.086 39.207C194.648 38.0352 195.625 37.6445 196.016 38.0352C196.602 38.2305 197.188 38.1328 197.773 37.7422C197.383 37.1562 197.188 36.668 197.188 36.2773C197.383 35.8867 197.578 35.4961 197.773 35.1055C197.969 34.5195 198.066 34.0312 198.066 33.6406C198.262 33.0547 198.262 32.3711 198.066 31.5898C197.09 31.1992 196.211 31.2969 195.43 31.8828C194.648 32.4688 193.672 32.5664 192.5 32.1758C191.523 33.7383 190.645 34.9102 189.863 35.6914C190.449 36.2773 190.449 36.9609 189.863 37.7422C189.277 38.3281 189.277 39.1094 189.863 40.0859C189.277 41.0625 188.398 41.9414 187.227 42.7227C186.25 43.3086 185.566 44.3828 185.176 45.9453C184.98 46.7266 185.078 47.6055 185.469 48.582C185.859 49.3633 185.566 49.9492 184.59 50.3398C184.395 51.707 184.102 53.0742 183.711 54.4414C183.516 55.8086 183.223 57.1758 182.832 58.543C182.441 59.9102 181.953 61.2773 181.367 62.6445C180.781 64.0117 179.902 65.0859 178.73 65.8672C179.707 67.8203 179.707 69.5781 178.73 71.1406C177.754 72.5078 176.973 73.9727 176.387 75.5352C176.973 76.707 177.07 77.4883 176.68 77.8789C176.484 78.2695 176.289 78.7578 176.094 79.3438C176.094 81.1016 175.801 82.3711 175.215 83.1523C174.629 83.7383 174.238 84.4219 174.043 85.2031C173.848 87.7422 173.652 89.0117 173.457 89.0117C173.262 89.0117 173.066 89.5 172.871 90.4766C172.871 91.6484 172.578 92.5273 171.992 93.1133C171.406 93.6992 171.016 94.4805 170.82 95.457C170.43 98.3867 169.941 100.242 169.355 101.023C168.965 101.805 168.965 102.781 169.355 103.953C168.965 105.516 168.672 106.492 168.477 106.883C168.281 107.078 168.281 107.664 168.477 108.641C167.695 109.422 167.109 110.398 166.719 111.57C166.328 112.742 166.035 114.012 165.84 115.379C165.645 116.551 165.352 117.82 164.961 119.188C164.57 120.359 163.984 121.336 163.203 122.117C163.398 124.266 162.91 126.121 161.738 127.684C160.566 129.051 160.176 130.613 160.566 132.371C159.785 133.152 159.297 134.031 159.102 135.008C159.102 135.984 159.004 136.961 158.809 137.938C158.809 138.914 158.613 139.891 158.223 140.867C158.027 141.844 157.441 142.723 156.465 143.504C157.246 145.066 157.148 146.336 156.172 147.312C155.195 148.289 154.902 149.656 155.293 151.414C154.512 151.609 154.023 152 153.828 152.586C153.828 152.977 153.828 153.465 153.828 154.051C153.828 154.637 153.73 155.223 153.535 155.809C153.535 156.199 153.047 156.395 152.07 156.395C152.07 158.543 151.777 160.691 151.191 162.84C150.801 164.988 149.824 166.844 148.262 168.406C149.043 169.383 149.141 170.262 148.555 171.043C147.969 171.824 147.48 172.996 147.09 174.559C146.699 176.512 145.918 178.66 144.746 181.004C143.574 183.348 142.598 185.008 141.816 185.984C141.816 187.938 141.523 190.086 140.938 192.43C140.547 194.578 139.766 196.336 138.594 197.703C139.18 199.266 138.984 200.828 138.008 202.391C137.031 203.758 136.25 205.125 135.664 206.492C135.664 208.055 135.469 209.52 135.078 210.887C134.688 212.254 134.199 213.719 133.613 215.281C133.223 216.648 132.93 218.113 132.734 219.676C132.539 221.238 132.734 222.898 133.32 224.656C130.391 225.828 128.242 225.34 126.875 223.191C125.703 221.043 125.312 218.602 125.703 215.867C123.75 213.719 122.285 211.082 121.309 207.957C120.527 204.637 119.648 201.414 118.672 198.289C117.695 197.508 117.109 196.434 116.914 195.066C116.719 193.699 116.133 192.723 115.156 192.137C114.57 188.426 113.398 185.105 111.641 182.176C109.883 179.246 108.516 176.414 107.539 173.68C106.562 173.484 105.586 173.191 104.609 172.801C103.828 172.215 102.949 171.824 101.973 171.629C102.363 169.09 102.949 167.625 103.73 167.234C104.512 166.648 104.805 165.574 104.609 164.012C103.633 163.035 102.656 162.254 101.68 161.668C100.703 160.887 100.02 159.91 99.6289 158.738C99.8242 155.223 99.2383 152.488 97.8711 150.535C96.5039 148.387 95.1367 146.043 93.7695 143.504C93.9648 142.137 93.6719 141.453 92.8906 141.453C92.3047 141.453 91.8164 141.258 91.4258 140.867C91.0352 139.109 91.5234 137.938 92.8906 137.352C93.0859 135.789 92.793 134.812 92.0117 134.422C91.4258 133.836 90.9375 132.762 90.5469 131.199C89.1797 131.004 88.1055 131.102 87.3242 131.492C86.7383 131.688 85.957 131.883 84.9805 132.078C84.9805 129.734 85.7617 128.66 87.3242 128.855C86.9336 126.707 86.543 124.949 86.1523 123.582C85.7617 122.215 85.3711 120.75 84.9805 119.188C83.6133 120.555 82.7344 121.336 82.3438 121.531C82.1484 121.531 81.7578 121.629 81.1719 121.824C80.1953 119.676 79.9023 118.504 80.293 118.309C80.6836 117.918 80.9766 117.234 81.1719 116.258C81.3672 112.547 81.2695 109.422 80.8789 106.883C80.6836 104.344 80.1953 101.707 79.4141 98.9727C78.8281 96.2383 78.1445 94.3828 77.3633 93.4062C76.7773 92.4297 76.875 91.3555 77.6562 90.1836C76.4844 86.8633 75.5078 84.6172 74.7266 83.4453C72.9688 83.0547 72.0898 82.4688 72.0898 81.6875C72.0898 80.9062 72.1875 80.125 72.3828 79.3438C72.5781 78.3672 72.5781 77.4883 72.3828 76.707C72.3828 75.9258 72.0898 75.0469 71.5039 74.0703C70.1367 74.6562 69.2578 74.6562 68.8672 74.0703C68.4766 73.2891 67.793 72.7031 66.8164 72.3125C67.0117 71.1406 67.3047 70.2617 67.6953 69.6758C68.2812 68.8945 68.8672 68.2109 69.4531 67.625C69.0625 65.0859 67.5977 64.207 65.0586 64.9883C65.4492 63.2305 65.6445 62.0586 65.6445 61.4727C65.8398 60.8867 66.3281 60.2031 67.1094 59.4219C66.5234 57.0781 65.8398 55.2227 65.0586 53.8555C63.6914 54.6367 62.1289 54.3438 60.3711 52.9766C60.5664 52 60.7617 51.1211 60.957 50.3398C61.1523 49.5586 61.7383 49.0703 62.7148 48.875C61.7383 45.5547 60.6641 42.5273 59.4922 39.793C58.5156 37.0586 56.9531 34.8125 54.8047 33.0547C54.2188 30.9062 53.8281 29.3438 53.6328 28.3672C53.4375 27.3906 52.7539 26.707 51.582 26.3164C50.6055 26.707 50.3125 27.3906 50.7031 28.3672C51.2891 29.3438 51.1914 29.9297 50.4102 30.125C50.6055 33.4453 50.7031 35.8867 50.7031 37.4492C50.7031 38.8164 50.1172 39.9883 48.9453 40.9648C49.1406 42.5273 49.8242 43.6016 50.9961 44.1875C50.9961 46.5312 51.0938 48.3867 51.2891 49.7539C51.4844 51.1211 51.582 52.5859 51.582 54.1484C51.582 55.5156 51.582 56.8828 51.582 58.25C51.7773 59.6172 52.168 60.8867 52.7539 62.0586C52.7539 62.8398 52.4609 63.4258 51.875 63.8164C51.4844 64.0117 51.0938 64.3047 50.7031 64.6953C50.5078 65.2812 50.5078 65.8672 50.7031 66.4531C50.8984 67.0391 50.8008 67.5273 50.4102 67.918C51.7773 68.8945 52.3633 69.5781 52.168 69.9688C51.9727 70.1641 51.875 70.75 51.875 71.7266C50.7031 73.6797 50.2148 75.1445 50.4102 76.1211C51.582 76.1211 52.168 76.707 52.168 77.8789C52.168 78.8555 51.6797 79.5391 50.7031 79.9297C51.875 82.4688 52.168 83.8359 51.582 84.0312C51.1914 84.0312 50.8984 84.2266 50.7031 84.6172C52.6562 86.375 53.1445 88.0352 52.168 89.5977C52.5586 91.7461 52.4609 92.918 51.875 93.1133C52.4609 93.8945 52.6562 94.5781 52.4609 95.1641C52.4609 95.75 52.7539 96.7266 53.3398 98.0938C53.1445 99.4609 53.1445 100.438 53.3398 101.023C53.7305 101.609 53.4375 102 52.4609 102.195C53.4375 103.562 53.8281 104.734 53.6328 105.711C53.4375 106.688 53.5352 108.152 53.9258 110.105C53.7305 111.668 53.4375 112.645 53.0469 113.035C52.6562 113.23 52.3633 113.719 52.168 114.5C53.3398 117.234 53.9258 119.383 53.9258 120.945C53.9258 122.508 54.1211 124.168 54.5117 125.926C54.707 126.902 54.8047 128.172 54.8047 129.734C55 131.297 55.1953 132.957 55.3906 134.715C54.2188 135.887 53.9258 136.668 54.5117 137.059C55.293 137.449 55.7812 138.23 55.9766 139.402C56.1719 142.332 56.1719 144.383 55.9766 145.555C55.7812 146.727 56.0742 147.801 56.8555 148.777C56.6602 150.73 56.6602 152.391 56.8555 153.758C57.0508 154.93 57.2461 156.102 57.4414 157.273C57.6367 158.445 57.7344 159.52 57.7344 160.496C57.7344 161.277 57.4414 161.961 56.8555 162.547C58.2227 164.305 58.6133 165.184 58.0273 165.184C57.6367 165.184 57.5391 165.379 57.7344 165.77C57.9297 166.551 58.2227 167.137 58.6133 167.527C59.0039 167.723 59.2969 168.309 59.4922 169.285C58.7109 170.066 58.3203 170.75 58.3203 171.336C58.3203 171.922 58.418 172.508 58.6133 173.094C58.8086 173.68 58.9062 174.363 58.9062 175.145C59.1016 175.73 58.9062 176.316 58.3203 176.902C58.9062 179.051 59.2969 180.613 59.4922 181.59C59.6875 182.371 60.0781 183.445 60.6641 184.812C60.0781 186.375 59.7852 187.352 59.7852 187.742C59.9805 188.133 59.9805 188.621 59.7852 189.207C59.5898 189.598 59.4922 189.988 59.4922 190.379C59.4922 190.574 59.7852 190.77 60.3711 190.965C59.7852 192.527 60.1758 193.992 61.543 195.359C61.543 196.531 61.3477 197.605 60.957 198.582C60.5664 199.363 60.8594 199.949 61.8359 200.34C62.4219 202.293 62.5195 203.27 62.1289 203.27C61.9336 203.27 61.8359 203.465 61.8359 203.855C62.4219 205.418 63.4961 206.883 65.0586 208.25C66.6211 209.422 67.3047 210.789 67.1094 212.352C69.8438 213.523 71.8945 214.793 73.2617 216.16C74.8242 217.527 76.875 218.406 79.4141 218.797C82.1484 219.188 85.0781 218.992 88.2031 218.211C91.3281 217.234 94.2578 217.137 96.9922 217.918C97.1875 218.504 97.2852 219.09 97.2852 219.676C97.2852 220.066 97.4805 220.652 97.8711 221.434C97.0898 222.215 96.2109 222.703 95.2344 222.898C94.2578 223.094 93.5742 223.68 93.1836 224.656C91.2305 224.852 89.082 224.852 86.7383 224.656C84.5898 224.461 82.832 225.047 81.4648 226.414C78.7305 225.633 76.582 224.852 75.0195 224.07C73.6523 223.094 72.5781 223.387 71.7969 224.949C70.2344 223.973 68.4766 223.777 66.5234 224.363C64.5703 224.754 62.9102 224.949 61.543 224.949C59.7852 225.535 58.6133 225.73 58.0273 225.535C57.6367 225.34 56.9531 225.34 55.9766 225.535C54.4141 223.973 52.6562 223.582 50.7031 224.363C48.9453 225.145 46.9922 225.535 44.8438 225.535C43.0859 225.34 41.2305 225.242 39.2773 225.242C37.5195 225.242 36.1523 225.73 35.1758 226.707C30.8789 226.316 26.6797 226.414 22.5781 227C18.6719 227.586 14.1797 227.684 9.10156 227.293C8.90625 226.316 8.22266 225.535 7.05078 224.949C6.07422 224.363 5.87891 223.387 6.46484 222.02C10.957 220.457 15.8398 219.871 21.1133 220.262C26.3867 220.457 31.2695 219.773 35.7617 218.211C39.2773 217.039 41.8164 215.379 43.3789 213.23C45.1367 210.887 47.1875 208.641 49.5312 206.492C51.0938 203.562 52.0703 200.34 52.4609 196.824C52.8516 193.113 52.9492 189.5 52.7539 185.984C52.5586 182.273 52.168 178.562 51.582 174.852C51.1914 171.141 50.8984 167.625 50.7031 164.305C50.5078 163.328 50.5078 162.352 50.7031 161.375C50.8984 160.398 50.4102 159.52 49.2383 158.738C50.2148 155.223 50.5078 151.316 50.1172 147.02C49.9219 142.723 49.7266 138.328 49.5312 133.836C49.5312 133.055 49.3359 132.273 48.9453 131.492C48.5547 130.711 48.3594 129.832 48.3594 128.855C48.3594 124.168 48.1641 119.09 47.7734 113.621C47.5781 107.957 47.1875 102.684 46.6016 97.8008C46.6016 96.6289 46.5039 95.2617 46.3086 93.6992C46.1133 91.9414 45.8203 90.2812 45.4297 88.7188C45.8203 85.3984 45.625 82.0781 44.8438 78.7578C44.0625 75.2422 44.1602 71.6289 45.1367 67.918C44.7461 63.8164 44.7461 59.2266 45.1367 54.1484C45.5273 49.0703 45.0391 44.2852 43.6719 39.793C44.4531 39.4023 44.6484 38.7188 44.2578 37.7422C44.0625 36.5703 43.8672 35.6914 43.6719 35.1055C43.2812 34.7148 42.6953 34.4219 41.9141 34.2266C41.3281 33.8359 40.8398 33.3477 40.4492 32.7617C40.6445 31.1992 40.4492 29.9297 39.8633 28.9531C39.4727 27.7812 38.7891 26.8047 37.8125 26.0234C37.0312 25.0469 36.25 24.0703 35.4688 23.0938C34.6875 22.1172 34.1016 20.9453 33.7109 19.5781C32.3438 18.7969 31.1719 17.8203 30.1953 16.6484C29.4141 15.2812 28.5352 14.1094 27.5586 13.1328C26.1914 13.3281 25.0195 13.2305 24.043 12.8398C23.2617 12.4492 22.3828 12.0586 21.4062 11.668C19.6484 11.4727 18.0859 11.4727 16.7188 11.668C15.3516 11.668 13.9844 11.1797 12.6172 10.2031C11.0547 10.2031 9.58984 10.1055 8.22266 9.91016C7.05078 9.51953 5.97656 9.12891 5 8.73828C3.82812 8.15234 2.85156 7.56641 2.07031 6.98047C1.28906 6.19922 0.800781 5.22266 0.605469 4.05078C3.33984 2.29297 6.66016 1.70703 10.5664 2.29297C14.668 2.68359 18.4766 2.97656 21.9922 3.17188C32.9297 4.34375 43.5742 4.73438 53.9258 4.34375C64.2773 3.75781 74.5312 3.95312 84.6875 4.92969C86.8359 4.14844 88.8867 3.85547 90.8398 4.05078C92.9883 4.05078 93.9648 5.32031 93.7695 7.85938C93.9648 11.1797 94.0625 13.6211 94.0625 15.1836C94.0625 16.5508 94.3555 18.2109 94.9414 20.1641C97.4805 21.1406 98.6523 22.0195 98.457 22.8008C98.2617 23.582 97.9688 24.3633 97.5781 25.1445C97.3828 25.9258 97.1875 26.8047 96.9922 27.7812C96.9922 28.5625 97.2852 29.3438 97.8711 30.125C99.4336 32.0781 100.41 33.3477 100.801 33.9336C101.387 34.5195 101.777 35.3008 101.973 36.2773C100.215 37.4492 99.7266 38.9141 100.508 40.6719C101.289 42.2344 102.363 43.3086 103.73 43.8945C102.949 45.6523 102.754 47.1172 103.145 48.2891C103.535 49.2656 104.023 50.3398 104.609 51.5117C105.195 52.4883 105.684 53.4648 106.074 54.4414C106.465 55.418 106.27 56.5898 105.488 57.957C106.27 59.7148 106.562 60.7891 106.367 61.1797C106.172 61.375 106.074 61.668 106.074 62.0586C106.855 62.4492 107.734 63.1328 108.711 64.1094C108.906 67.8203 109.883 69.3828 111.641 68.7969C112.031 70.3594 112.031 72.0195 111.641 73.7773C111.445 75.5352 111.543 76.9023 111.934 77.8789C112.324 78.0742 112.91 78.2695 113.691 78.4648C114.473 78.4648 115.059 78.1719 115.449 77.5859C116.621 78.5625 117.012 79.3438 116.621 79.9297C116.426 80.3203 116.523 81.0039 116.914 81.9805C115.547 84.1289 114.961 85.4961 115.156 86.082C115.547 86.668 116.23 87.3516 117.207 88.1328C118.184 88.5234 118.574 89.6953 118.379 91.6484C118.379 93.4062 118.379 94.8711 118.379 96.043C121.113 97.0195 122.383 98.0938 122.188 99.2656C121.992 100.242 121.504 101.023 120.723 101.609C120.918 103.758 121.504 105.516 122.48 106.883C123.457 108.055 123.75 109.422 123.359 110.984C124.141 112.156 124.629 112.938 124.824 113.328C125.215 113.719 125.215 114.109 124.824 114.5C125.996 115.672 126.777 117.039 127.168 118.602C127.754 119.969 128.242 121.434 128.633 122.996C129.023 124.559 129.414 126.023 129.805 127.391C130.391 128.758 131.367 129.93 132.734 130.906C132.734 131.883 133.027 133.055 133.613 134.422C134.199 135.594 134.688 136.668 135.078 137.645C136.25 137.254 137.227 137.352 138.008 137.938C138.984 138.523 139.961 139.012 140.938 139.402C140.352 140.379 139.863 140.965 139.473 141.16C139.277 141.355 138.984 141.941 138.594 142.918C138.789 143.895 139.18 144.578 139.766 144.969C140.547 145.164 141.035 145.848 141.23 147.02C142.207 149.363 142.988 151.316 143.574 152.879C144.16 154.441 144.941 156.102 145.918 157.859C146.699 157.664 147.188 157.176 147.383 156.395C147.773 155.613 148.066 154.832 148.262 154.051C148.457 153.27 148.652 152.488 148.848 151.707C149.238 150.926 149.922 150.34 150.898 149.949C150.703 148.973 150.801 148.387 151.191 148.191C151.582 147.801 151.582 147.117 151.191 146.141C152.363 141.062 153.73 135.789 155.293 130.32C157.051 124.656 158.809 119.676 160.566 115.379C162.129 110.691 163.398 106.297 164.375 102.195C165.352 97.8984 166.23 93.8945 167.012 90.1836C167.793 90.1836 168.281 89.8906 168.477 89.3047C168.672 88.5234 168.965 87.9375 169.355 87.5469C169.16 85.2031 169.453 83.0547 170.234 81.1016C171.016 78.9531 171.895 77 172.871 75.2422C172.48 74.6562 172.285 73.9727 172.285 73.1914C172.48 72.4102 172.676 71.7266 172.871 71.1406C173.262 70.3594 173.457 69.6758 173.457 69.0898C173.652 68.3086 173.555 67.625 173.164 67.0391C173.945 66.2578 174.434 65.4766 174.629 64.6953C175.02 63.9141 175.41 63.1328 175.801 62.3516C176.387 61.375 176.777 60.4961 176.973 59.7148C177.363 58.7383 177.461 57.6641 177.266 56.4922C179.219 55.3203 180.195 53.5625 180.195 51.2188C180.391 48.6797 180.781 46.2383 181.367 43.8945C181.758 42.332 182.441 40.9648 183.418 39.793C184.59 38.6211 184.98 37.2539 184.59 35.6914C185.762 34.7148 186.445 33.3477 186.641 31.5898C187.031 29.832 187.422 27.8789 187.812 25.7305C189.57 24.168 190.449 22.2148 190.449 19.8711C190.645 17.332 191.523 15.3789 193.086 14.0117C192.695 12.8398 192.402 11.375 192.207 9.61719C192.207 7.66406 191.816 6.19922 191.035 5.22266C193.184 4.83203 194.258 4.53906 194.258 4.34375C194.453 4.14844 194.746 3.95312 195.137 3.75781C201.387 3.17188 207.441 2.68359 213.301 2.29297C219.16 1.90234 224.922 1.60938 230.586 1.41406C236.836 2.78125 243.281 2.39062 249.922 0.242188C252.07 0.828125 254.414 1.21875 256.953 1.41406C259.688 1.60938 261.836 1.21875 263.398 0.242188C266.719 1.41406 270.43 1.80469 274.531 1.41406C278.828 0.828125 282.539 1.41406 285.664 3.17188C284.883 5.125 284.688 6.10156 285.078 6.10156C285.664 6.10156 285.957 6.39453 285.957 6.98047C285.762 7.95703 285.273 8.54297 284.492 8.73828C283.906 8.73828 283.418 8.93359 283.027 9.32422C282.441 8.34766 281.367 7.85938 279.805 7.85938C278.438 7.66406 277.363 7.27344 276.582 6.6875C269.941 7.46875 263.496 8.34766 257.246 9.32422C256.465 10.1055 255.684 10.8867 254.902 11.668C254.121 12.2539 253.047 12.7422 251.68 13.1328C251.484 14.3047 251.191 15.7695 250.801 17.5273C250.41 19.2852 250.02 20.9453 249.629 22.5078C248.848 22.5078 248.555 23.0938 248.75 24.2656C249.141 25.2422 249.043 26.2188 248.457 27.1953C250.41 28.9531 251.289 29.6367 251.094 29.2461C251.094 28.6602 251.289 28.3672 251.68 28.3672C253.242 28.9531 253.535 30.0273 252.559 31.5898C251.777 33.1523 250.801 33.6406 249.629 33.0547C248.848 35.7891 248.359 38.8164 248.164 42.1367C247.969 45.2617 247.969 48.4844 248.164 51.8047C247.578 56.2969 247.48 60.4961 247.871 64.4023C248.457 68.3086 248.262 72.4102 247.285 76.707C248.848 78.6602 249.824 79.5391 250.215 79.3438C250.801 78.9531 251.484 78.5625 252.266 78.1719C252.461 79.1484 252.363 79.832 251.973 80.2227C251.777 80.6133 251.582 81.1992 251.387 81.9805C249.629 82.1758 248.652 82.8594 248.457 84.0312C248.457 85.2031 247.969 86.1797 246.992 86.9609C246.797 88.7188 246.895 90.3789 247.285 91.9414C247.676 93.3086 247.676 94.4805 247.285 95.457C247.285 98.3867 247.188 101.121 246.992 103.66C246.797 106.004 247.09 108.152 247.871 110.105C245.918 115.77 245.039 120.652 245.234 124.754C245.625 128.66 246.016 132.566 246.406 136.473C245.43 137.059 244.844 137.84 244.648 138.816C244.453 139.598 244.258 140.574 244.062 141.746C244.062 142.723 243.965 143.699 243.77 144.676C243.574 145.652 243.184 146.531 242.598 147.312C244.746 147.898 245.82 148.387 245.82 148.777C245.82 148.973 246.016 149.168 246.406 149.363C246.016 150.145 245.527 150.633 244.941 150.828C244.551 151.023 244.551 151.609 244.941 152.586C244.16 154.148 243.574 155.418 243.184 156.395C242.988 157.371 242.988 158.543 243.184 159.91C244.355 160.105 245.039 160.398 245.234 160.789C245.43 161.18 246.016 161.277 246.992 161.082C246.016 162.449 244.453 163.621 242.305 164.598C243.477 166.551 243.672 167.918 242.891 168.699C242.305 169.285 241.816 170.262 241.426 171.629C241.621 172.41 242.012 173.191 242.598 173.973C243.379 174.754 243.867 176.023 244.062 177.781C243.281 177.977 242.793 178.367 242.598 178.953C242.598 179.539 242.598 180.223 242.598 181.004C242.598 181.785 242.598 182.566 242.598 183.348C242.598 184.129 242.305 184.715 241.719 185.105C242.695 186.668 242.988 188.426 242.598 190.379C242.207 192.332 242.207 194.383 242.598 196.531C242.402 200.438 242.598 203.953 243.184 207.078C243.77 210.203 244.941 212.938 246.699 215.281C248.066 215.281 249.238 215.574 250.215 216.16C251.387 216.551 252.461 216.453 253.438 215.867C259.102 217.43 265.059 217.723 271.309 216.746C277.754 215.574 284.102 214.793 290.352 214.402ZM246.992 11.375C245.625 11.1797 244.453 11.668 243.477 12.8398C242.5 13.8164 241.621 14.1094 240.84 13.7188C241.816 14.6953 242.5 15.2812 242.891 15.4766C243.281 15.6719 243.867 15.7695 244.648 15.7695C244.453 14.793 244.844 14.207 245.82 14.0117C246.797 13.6211 247.188 12.7422 246.992 11.375ZM240.84 9.32422C239.277 10.1055 238.398 10.8867 238.203 11.668C238.984 12.0586 239.57 11.9609 239.961 11.375C240.352 10.7891 240.645 10.1055 240.84 9.32422ZM237.91 14.8906C236.152 15.8672 235.371 16.7461 235.566 17.5273C235.762 18.3086 236.348 18.8945 237.324 19.2852C237.129 18.3086 236.934 17.5273 236.738 16.9414C236.738 16.1602 237.129 15.4766 237.91 14.8906ZM210.957 10.2031C210.371 9.8125 209.59 9.51953 208.613 9.32422C207.832 8.93359 207.246 8.93359 206.855 9.32422C207.832 10.3008 208.711 10.8867 209.492 11.082C210.469 11.2773 210.957 10.9844 210.957 10.2031ZM237.324 14.0117C234.199 13.6211 230.879 13.3281 227.363 13.1328C227.168 14.1094 227.363 14.5977 227.949 14.5977C228.73 14.5977 229.023 15.0859 228.828 16.0625L225.898 14.0117C225.898 15.5742 224.922 16.7461 222.969 17.5273C221.211 18.1133 219.551 18.2109 217.988 17.8203C217.598 18.4062 217.207 19.1875 216.816 20.1641C216.621 20.9453 215.84 21.043 214.473 20.457C213.105 21.6289 212.129 22.4102 211.543 22.8008C210.957 22.9961 210.371 22.9961 209.785 22.8008C208.223 24.9492 207.051 26.3164 206.27 26.9023C205.684 27.293 205 27.293 204.219 26.9023C204.219 28.0742 203.828 29.0508 203.047 29.832C202.461 30.6133 202.363 31.4922 202.754 32.4688C203.73 32.4688 204.512 32.1758 205.098 31.5898C205.684 30.8086 206.465 30.6133 207.441 31.0039C207.832 30.2227 208.223 29.5391 208.613 28.9531C209.004 28.3672 209.688 28.0742 210.664 28.0742C210.273 28.6602 210.566 28.9531 211.543 28.9531C212.52 28.9531 213.203 29.1484 213.594 29.5391C215.352 26.6094 216.816 25.1445 217.988 25.1445C219.355 25.1445 220.723 24.8516 222.09 24.2656C221.895 22.7031 221.992 21.7266 222.383 21.3359C222.773 20.75 223.359 20.3594 224.141 20.1641C224.531 21.1406 225.41 21.9219 226.777 22.5078C227.949 20.5547 228.73 19.4805 229.121 19.2852C229.707 19.0898 230.098 18.6992 230.293 18.1133C230.488 17.5273 230.879 17.0391 231.465 16.6484C232.051 16.2578 232.637 15.8672 233.223 15.4766C233.809 14.8906 234.395 14.4023 234.98 14.0117C235.566 13.6211 236.348 13.6211 237.324 14.0117ZM222.969 14.0117C223.555 13.4258 224.141 12.5469 224.727 11.375C225.508 10.0078 224.922 9.32422 222.969 9.32422C221.406 10.4961 220.527 10.8867 220.332 10.4961C220.332 10.1055 220.137 9.91016 219.746 9.91016C218.965 10.3008 218.477 10.9844 218.281 11.9609C218.281 12.7422 217.598 13.0352 216.23 12.8398C215.254 13.6211 214.473 14.3047 213.887 14.8906C213.496 15.2812 212.812 15.1836 211.836 14.5977C210.273 16.3555 209.492 17.1367 209.492 16.9414C209.492 16.7461 209.297 16.6484 208.906 16.6484C208.516 17.2344 207.93 17.7227 207.148 18.1133C206.562 18.3086 206.074 18.9922 205.684 20.1641C204.121 21.3359 203.242 22.2148 203.047 22.8008C203.047 23.3867 203.047 24.3633 203.047 25.7305C203.828 25.3398 204.512 24.9492 205.098 24.5586C205.684 24.168 206.562 24.0703 207.734 24.2656C207.148 21.9219 207.246 20.8477 208.027 21.043C208.809 21.043 209.395 20.75 209.785 20.1641C210.566 21.3359 211.055 21.7266 211.25 21.3359C211.445 20.9453 211.543 20.5547 211.543 20.1641C211.738 19.7734 211.934 19.4805 212.129 19.2852C212.52 18.8945 213.105 18.7969 213.887 18.9922C215.645 18.2109 216.328 17.332 215.938 16.3555C216.914 16.1602 217.695 15.7695 218.281 15.1836C219.062 14.5977 219.746 14.0117 220.332 13.4258L222.969 14.0117ZM246.699 18.6992C243.184 17.7227 240.645 17.7227 239.082 18.6992C237.715 19.4805 236.738 19.6758 236.152 19.2852C235.566 18.8945 234.98 18.8945 234.395 19.2852C233.809 21.043 233.223 22.2148 232.637 22.8008C232.051 23.3867 231.367 23.875 230.586 24.2656C229.805 24.4609 229.121 24.7539 228.535 25.1445C228.145 25.3398 228.242 25.6328 228.828 26.0234C226.68 26.2188 225.703 26.5117 225.898 26.9023C226.094 27.293 225.996 27.5859 225.605 27.7812C222.48 28.5625 220.918 28.7578 220.918 28.3672C219.551 29.9297 218.77 30.6133 218.574 30.418C218.574 30.2227 218.379 30.3203 217.988 30.7109C217.793 31.4922 217.402 31.8828 216.816 31.8828C216.426 31.8828 215.84 31.7852 215.059 31.5898C214.473 31.3945 213.887 31.2969 213.301 31.2969C212.715 31.1016 212.129 31.2969 211.543 31.8828C212.91 33.4453 213.594 34.5195 213.594 35.1055C211.836 34.3242 210.371 34.4219 209.199 35.3984C208.223 36.375 207.246 36.8633 206.27 36.8633C206.074 37.6445 205.684 38.6211 205.098 39.793C204.707 40.7695 204.316 41.7461 203.926 42.7227C204.121 43.6992 204.219 44.7734 204.219 45.9453C204.219 47.1172 204.512 47.8008 205.098 47.9961C205.879 47.6055 206.465 47.2148 206.855 46.8242C207.246 46.2383 207.832 45.6523 208.613 45.0664C209.199 45.6523 209.395 46.2383 209.199 46.8242C209.199 47.4102 209.395 47.8984 209.785 48.2891C211.738 46.3359 212.324 45.457 211.543 45.6523C210.762 45.8477 210.273 45.6523 210.078 45.0664C212.031 43.3086 213.105 42.7227 213.301 43.3086C213.496 43.6992 213.789 43.9922 214.18 44.1875C213.984 43.2109 214.277 42.625 215.059 42.4297C215.84 42.0391 216.426 41.4531 216.816 40.6719C217.207 41.4531 217.402 42.1367 217.402 42.7227C217.402 43.1133 217.695 43.7969 218.281 44.7734C218.086 42.625 217.891 41.2578 217.695 40.6719C217.695 40.0859 217.695 39.5977 217.695 39.207C219.258 39.793 220.332 40.2812 220.918 40.6719C221.699 41.0625 222.285 40.8672 222.676 40.0859C221.309 37.9375 221.211 36.8633 222.383 36.8633C223.75 36.8633 224.824 37.1562 225.605 37.7422C225.02 35.3984 225.312 34.2266 226.484 34.2266C227.656 34.2266 228.535 33.7383 229.121 32.7617C230.684 32.5664 231.465 32.1758 231.465 31.5898C231.465 31.0039 231.367 30.5156 231.172 30.125C233.516 29.5391 234.59 29.4414 234.395 29.832C234.395 30.0273 234.59 30.125 234.98 30.125C234.98 29.5391 235.566 29.2461 236.738 29.2461C237.91 29.0508 238.594 28.9531 238.789 28.9531C237.617 30.125 236.836 30.8086 236.445 31.0039C236.25 31.1992 235.957 31.3945 235.566 31.5898C238.105 31.5898 239.57 31.5898 239.961 31.5898C240.352 31.3945 241.035 31.2969 242.012 31.2969C242.402 30.3203 243.086 29.5391 244.062 28.9531C245.234 28.3672 245.332 27.3906 244.355 26.0234C242.988 25.4375 242.402 24.9492 242.598 24.5586C242.988 24.168 242.988 23.582 242.598 22.8008C243.574 22.4102 244.258 21.7266 244.648 20.75C245.039 19.7734 245.723 19.0898 246.699 18.6992ZM205.684 9.32422C204.707 9.71484 203.633 9.91016 202.461 9.91016C201.289 9.71484 200.215 9.8125 199.238 10.2031C199.629 10.9844 199.727 11.5703 199.531 11.9609C199.336 12.1562 199.336 12.6445 199.531 13.4258C200.703 13.6211 201.582 13.5234 202.168 13.1328C202.754 12.5469 203.73 12.4492 205.098 12.8398C205.488 12.0586 205.586 11.4727 205.391 11.082C205.391 10.4961 205.488 9.91016 205.684 9.32422ZM196.309 27.1953C195.332 25.6328 194.551 25.3398 193.965 26.3164C193.574 27.0977 193.281 27.9766 193.086 28.9531C194.062 28.9531 195.137 28.3672 196.309 27.1953ZM241.426 78.1719C239.863 79.3438 238.984 80.0273 238.789 80.2227C238.594 80.2227 238.496 80.418 238.496 80.8086C239.473 80.418 240.254 80.125 240.84 79.9297C241.621 79.5391 241.816 78.9531 241.426 78.1719ZM245.527 52.6836C244.551 51.3164 244.16 49.9492 244.355 48.582C244.551 47.2148 244.551 45.457 244.355 43.3086C244.746 42.332 244.746 41.4531 244.355 40.6719C244.16 39.8906 244.258 39.0117 244.648 38.0352C242.891 37.0586 241.523 37.2539 240.547 38.6211C239.961 39.793 239.277 40.4766 238.496 40.6719C237.715 40.8672 236.836 40.9648 235.859 40.9648C236.641 41.9414 236.445 42.7227 235.273 43.3086C234.297 43.6992 234.102 44.2852 234.688 45.0664C233.711 46.043 232.539 47.1172 231.172 48.2891C229.805 49.2656 228.438 49.8516 227.07 50.0469C227.656 49.6562 228.047 49.168 228.242 48.582C228.438 47.9961 228.828 47.3125 229.414 46.5312C230.391 46.7266 230.879 46.3359 230.879 45.3594C230.879 44.3828 231.074 43.6992 231.465 43.3086C233.418 42.332 234.59 41.7461 234.98 41.5508C235.371 41.1602 235.664 40.7695 235.859 40.3789C236.055 39.793 236.348 39.4023 236.738 39.207C237.129 38.8164 237.812 38.6211 238.789 38.6211C240.156 37.0586 241.328 36.1797 242.305 35.9844C243.281 35.5938 243.867 34.9102 244.062 33.9336C243.672 33.543 243.281 33.1523 242.891 32.7617C242.695 32.1758 242.109 31.9805 241.133 32.1758C240.742 34.7148 239.473 36.1797 237.324 36.5703C235.176 36.9609 233.223 37.1562 231.465 37.1562C231.465 37.9375 231.172 38.6211 230.586 39.207C230.195 39.793 229.414 39.9883 228.242 39.793C228.438 40.9648 227.949 41.3555 226.777 40.9648C225.605 40.5742 224.922 40.7695 224.727 41.5508C223.164 41.9414 222.188 42.2344 221.797 42.4297C221.602 42.4297 221.602 42.625 221.797 43.0156C221.211 45.5547 220.527 46.9219 219.746 47.1172C218.965 47.3125 218.086 47.4102 217.109 47.4102C216.328 47.2148 215.547 47.1172 214.766 47.1172C213.984 47.1172 213.594 47.5078 213.594 48.2891H217.402C216.035 48.875 214.668 49.4609 213.301 50.0469C212.129 50.6328 210.762 51.2188 209.199 51.8047C209.199 53.5625 208.027 54.6367 205.684 55.0273C205.879 56.5898 205.781 57.8594 205.391 58.8359C205.195 59.8125 205.684 60.7891 206.855 61.7656C208.223 60.0078 209.004 59.1289 209.199 59.1289C209.785 59.9102 210.371 60.2031 210.957 60.0078C211.738 59.8125 212.617 59.8125 213.594 60.0078L210.664 57.957C211.836 58.3477 212.52 58.25 212.715 57.6641C212.91 57.0781 213.398 56.6875 214.18 56.4922C214.375 55.5156 214.766 54.9297 215.352 54.7344C215.938 54.3438 216.523 54.1484 217.109 54.1484C217.695 53.9531 218.184 53.7578 218.574 53.5625C219.16 53.1719 219.551 52.5859 219.746 51.8047C221.699 50.4375 223.652 49.4609 225.605 48.875C224.629 50.4375 224.434 51.2188 225.02 51.2188C225.605 51.2188 225.801 51.5117 225.605 52.0977C225.02 51.9023 224.336 51.707 223.555 51.5117C222.969 51.1211 222.578 51.4141 222.383 52.3906C224.531 53.1719 226.289 53.1719 227.656 52.3906C229.219 51.6094 230.781 51.4141 232.344 51.8047C231.953 52.9766 230.977 53.5625 229.414 53.5625C227.852 53.5625 226.875 54.0508 226.484 55.0273C225.508 55.6133 224.824 56.0039 224.434 56.1992C224.238 56.3945 223.75 56.3945 222.969 56.1992C222.383 57.3711 221.602 57.8594 220.625 57.6641C219.844 57.4688 219.453 57.8594 219.453 58.8359C216.328 60.9844 214.082 62.6445 212.715 63.8164C211.543 64.793 209.883 65.5742 207.734 66.1602C208.516 67.332 208.516 68.2109 207.734 68.7969C206.953 69.1875 206.855 70.1641 207.441 71.7266C208.027 73.6797 208.223 74.6562 208.027 74.6562C207.832 74.6562 207.637 74.7539 207.441 74.9492C209.004 75.3398 209.883 75.3398 210.078 74.9492C210.469 74.5586 210.957 74.5586 211.543 74.9492C210.957 73.1914 210.762 72.1172 210.957 71.7266C211.152 71.3359 211.641 71.1406 212.422 71.1406C214.57 71.5312 215.547 71.4336 215.352 70.8477C215.352 70.0664 215.547 69.6758 215.938 69.6758C217.891 69.2852 219.355 68.7969 220.332 68.2109C221.504 67.4297 222.578 67.5273 223.555 68.5039C223.555 67.7227 224.043 67.4297 225.02 67.625C225.996 67.8203 226.68 67.7227 227.07 67.332C228.828 65.9648 230.195 64.6953 231.172 63.5234C232.344 62.3516 233.809 61.9609 235.566 62.3516C236.543 60.7891 237.617 60.4961 238.789 61.4727C240.156 62.4492 241.328 62.7422 242.305 62.3516C241.914 62.7422 241.621 63.3281 241.426 64.1094C241.426 64.8906 241.23 65.4766 240.84 65.8672C239.863 67.2344 238.887 68.1133 237.91 68.5039C236.934 68.8945 235.957 68.8945 234.98 68.5039C234.59 69.0898 233.906 70.0664 232.93 71.4336C231.953 72.8008 230.977 72.8984 230 71.7266C230.586 72.5078 231.172 73.3867 231.758 74.3633C232.344 75.1445 233.125 75.0469 234.102 74.0703C233.32 75.6328 232.344 76.8047 231.172 77.5859C230 78.3672 228.73 79.2461 227.363 80.2227C226.191 81.0039 224.922 81.6875 223.555 82.2734C222.188 82.8594 220.723 82.8594 219.16 82.2734C219.16 83.0547 219.258 83.7383 219.453 84.3242C219.648 84.7148 219.941 85.2031 220.332 85.7891C218.184 85.9844 216.719 86.4727 215.938 87.2539C215.156 87.8398 214.473 88.5234 213.887 89.3047C213.301 89.8906 212.617 90.3789 211.836 90.7695C211.25 91.1602 210.371 91.0625 209.199 90.4766C209.004 91.6484 208.809 92.5273 208.613 93.1133C208.418 93.5039 208.027 93.6016 207.441 93.4062C207.051 94.3828 206.758 95.3594 206.562 96.3359C206.562 97.1172 206.465 97.9961 206.27 98.9727C206.855 98.7773 207.441 98.582 208.027 98.3867C208.613 98.1914 209.395 98.1914 210.371 98.3867C210.566 97.6055 211.055 97.1172 211.836 96.9219C212.617 96.5312 213.203 95.8477 213.594 94.8711C215.742 92.918 217.207 91.5508 217.988 90.7695C218.77 89.9883 220.039 89.6953 221.797 89.8906C221.797 88.9141 222.188 88.3281 222.969 88.1328C223.75 87.7422 224.238 87.1562 224.434 86.375C225.02 86.7656 225.703 87.2539 226.484 87.8398C227.266 88.4258 227.949 88.3281 228.535 87.5469C228.34 86.9609 227.949 86.5703 227.363 86.375C226.777 86.1797 226.289 85.8867 225.898 85.4961C227.07 84.9102 228.242 84.1289 229.414 83.1523C230.586 82.1758 231.758 81.8828 232.93 82.2734C234.688 80.3203 235.664 79.2461 235.859 79.0508C235.469 78.0742 235.371 77.3906 235.566 77C235.762 76.6094 236.445 76.3164 237.617 76.1211C235.859 74.9492 235.078 74.168 235.273 73.7773C235.664 73.1914 236.055 72.8008 236.445 72.6055C237.422 72.6055 238.301 72.4102 239.082 72.0195C240.059 71.6289 241.035 71.6289 242.012 72.0195C243.379 71.043 244.062 69.9688 244.062 68.7969C244.258 67.4297 243.672 66.2578 242.305 65.2812C243.672 62.3516 244.16 59.9102 243.77 57.957C243.574 55.8086 244.16 54.0508 245.527 52.6836ZM242.012 86.668C240.254 86.8633 239.18 86.9609 238.789 86.9609C238.594 86.9609 238.398 86.7656 238.203 86.375C237.812 87.1562 238.105 87.6445 239.082 87.8398C240.059 88.0352 240.547 88.5234 240.547 89.3047L242.012 86.668ZM221.211 73.1914C221.016 72.2148 220.723 71.5312 220.332 71.1406C219.941 70.75 219.844 70.0664 220.039 69.0898C218.477 69.4805 217.305 70.1641 216.523 71.1406C218.867 71.1406 219.746 71.3359 219.16 71.7266C218.77 72.1172 218.77 72.7031 219.16 73.4844L221.211 73.1914ZM236.445 87.5469C235.273 87.9375 234.102 87.8398 232.93 87.2539C235.273 88.2305 236.445 88.3281 236.445 87.5469ZM241.426 90.4766C240.254 89.8906 239.277 89.9883 238.496 90.7695C237.715 91.5508 236.543 91.8438 234.98 91.6484C236.348 93.0156 237.227 93.5039 237.617 93.1133C238.008 92.7227 238.398 92.8203 238.789 93.4062C238.594 92.4297 238.984 92.0391 239.961 92.2344C241.133 92.2344 241.621 91.6484 241.426 90.4766ZM228.828 70.5547C227.461 69.7734 226.484 69.5781 225.898 69.9688C225.508 70.3594 224.629 70.457 223.262 70.2617C222.09 71.8242 221.699 72.8984 222.09 73.4844C222.48 73.875 222.48 74.0703 222.09 74.0703C219.941 73.4844 218.379 73.7773 217.402 74.9492C216.621 76.1211 215.449 76.707 213.887 76.707C213.691 78.6602 212.715 80.0273 210.957 80.8086C209.395 81.3945 208.027 82.3711 206.855 83.7383C208.223 85.4961 209.297 86.1797 210.078 85.7891C211.055 85.2031 212.031 84.7148 213.008 84.3242C212.617 82.7617 212.812 81.8828 213.594 81.6875C214.375 81.2969 214.863 80.6133 215.059 79.6367C217.207 79.4414 218.281 79.5391 218.281 79.9297C218.477 80.3203 218.867 80.418 219.453 80.2227C219.648 78.0742 220.039 77 220.625 77C221.406 77 221.992 76.8047 222.383 76.4141L225.898 73.1914C227.852 72.8008 228.73 72.4102 228.535 72.0195C228.34 71.6289 228.438 71.1406 228.828 70.5547ZM242.598 105.418C242.598 104.246 242.695 103.172 242.891 102.195C243.086 101.023 242.988 100.145 242.598 99.5586C241.621 100.34 240.645 100.926 239.668 101.316C238.887 101.512 238.398 101.902 238.203 102.488C238.789 103.465 238.984 104.344 238.789 105.125C238.594 105.711 238.105 106.102 237.324 106.297C235.762 107.469 234.98 108.25 234.98 108.641C235.762 108.25 236.348 107.957 236.738 107.762C237.324 107.566 237.91 107.664 238.496 108.055C238.887 107.273 239.473 106.785 240.254 106.59C241.23 106.395 242.012 106.004 242.598 105.418ZM232.93 89.8906C232.539 89.5 231.953 89.5 231.172 89.8906C230.391 90.2812 229.707 90.1836 229.121 89.5977C228.73 90.7695 227.852 91.5508 226.484 91.9414C225.312 92.332 224.238 93.0156 223.262 93.9922C222.48 94.9688 221.309 95.75 219.746 96.3359C218.379 96.7266 217.891 97.4102 218.281 98.3867C216.523 99.3633 215.352 100.047 214.766 100.438C214.375 100.828 213.887 101.219 213.301 101.609C212.129 101.609 211.25 101.902 210.664 102.488C210.273 103.074 209.883 103.66 209.492 104.246C209.102 104.832 208.613 105.418 208.027 106.004C207.637 106.59 206.953 106.883 205.977 106.883C205.977 107.859 206.074 108.543 206.27 108.934C206.66 109.324 206.855 109.91 206.855 110.691C208.223 110.105 208.906 109.91 208.906 110.105C209.102 110.105 209.492 110.008 210.078 109.812C210.078 108.836 210.273 108.152 210.664 107.762C211.25 107.176 211.934 106.785 212.715 106.59C213.496 106.199 214.18 105.906 214.766 105.711C215.547 105.516 216.23 105.223 216.816 104.832C217.598 104.051 218.086 103.27 218.281 102.488C218.672 101.707 219.062 101.121 219.453 100.73C219.844 101.121 220.234 101.512 220.625 101.902C221.016 102.293 221.504 102.684 222.09 103.074C221.895 100.535 222.188 98.7773 222.969 97.8008C223.75 96.8242 225.02 96.3359 226.777 96.3359C228.34 96.9219 229.414 97.3125 230 97.5078C230.781 97.5078 231.172 97.2148 231.172 96.6289C230.391 95.6523 229.609 95.0664 228.828 94.8711C228.242 94.6758 228.145 94.3828 228.535 93.9922C229.902 94.9688 231.074 95.457 232.051 95.457C232.051 92.5273 232.148 91.1602 232.344 91.3555C232.734 91.3555 232.93 90.8672 232.93 89.8906ZM241.719 118.309C240.352 116.16 239.473 115.281 239.082 115.672C238.887 115.867 238.398 115.867 237.617 115.672C238.203 116.648 238.105 117.43 237.324 118.016C236.738 118.602 236.934 119.188 237.91 119.773C236.152 120.359 234.297 120.457 232.344 120.066C231.953 120.848 231.66 121.629 231.465 122.41C231.27 123.191 230.977 123.777 230.586 124.168C233.711 123.191 235.762 122.703 236.738 122.703C237.715 122.703 238.984 122.898 240.547 123.289C240.156 122.312 240.156 121.531 240.547 120.945C240.938 120.164 241.328 119.285 241.719 118.309ZM242.012 94.8711C241.23 94.4805 240.547 94.6758 239.961 95.457C239.375 96.2383 238.691 96.8242 237.91 97.2148C237.129 97.2148 236.348 97.1172 235.566 96.9219C234.785 96.5312 234.004 96.6289 233.223 97.2148C231.855 98.9727 230.977 99.9492 230.586 100.145C230.195 100.34 229.902 100.633 229.707 101.023C229.316 101.805 228.633 102.586 227.656 103.367C226.875 103.953 225.703 104.051 224.141 103.66C223.359 104.441 222.676 105.125 222.09 105.711C221.699 106.102 221.309 106.688 220.918 107.469C220.527 108.055 220.039 108.641 219.453 109.227C218.867 109.617 218.086 109.715 217.109 109.52C215.742 110.887 214.375 112.059 213.008 113.035C211.641 114.012 210.371 115.086 209.199 116.258C208.027 117.43 207.051 118.699 206.27 120.066C205.488 121.434 205.391 123.191 205.977 125.34C213.008 120.262 219.062 115.184 224.141 110.105C225.898 109.715 227.266 108.934 228.242 107.762C229.414 106.59 230.195 105.516 230.586 104.539C232.734 103.562 233.711 102.977 233.516 102.781C233.516 102.586 233.711 102.391 234.102 102.195C235.469 102 236.25 101.805 236.445 101.609C236.836 101.219 237.227 100.828 237.617 100.438C238.203 99.4609 238.984 98.6797 239.961 98.0938C240.938 97.5078 241.621 96.4336 242.012 94.8711ZM239.375 114.207C238.398 114.012 238.008 113.621 238.203 113.035C238.594 112.449 238.594 111.668 238.203 110.691C238.008 111.473 236.738 111.766 234.395 111.57C234.004 112.938 233.809 113.719 233.809 113.914C233.809 114.109 233.516 114.305 232.93 114.5C231.953 114.891 231.27 115.086 230.879 115.086C230.488 114.891 230.098 114.891 229.707 115.086C227.559 117.234 225.508 118.211 223.555 118.016C220.039 121.141 216.523 124.07 213.008 126.805C209.688 129.539 207.246 132.762 205.684 136.473C208.027 137.254 209.297 137.449 209.492 137.059C209.688 136.668 209.98 136.375 210.371 136.18C212.129 135.594 213.496 135.301 214.473 135.301C215.449 135.105 215.645 134.52 215.059 133.543C214.668 133.543 214.082 133.836 213.301 134.422C212.715 134.812 212.227 134.812 211.836 134.422C213.203 133.641 214.375 132.664 215.352 131.492C216.328 130.125 217.5 129.441 218.867 129.441C220.039 128.465 220.527 127.781 220.332 127.391C220.332 127 220.82 126.902 221.797 127.098C223.359 124.559 224.824 123.289 226.191 123.289C227.559 123.289 228.73 122.801 229.707 121.824C230.293 120.457 230.684 119.48 230.879 118.895C231.074 118.113 231.758 117.527 232.93 117.137C233.516 117.137 233.906 116.746 234.102 115.965C234.297 115.184 234.785 114.5 235.566 113.914C236.543 113.523 237.324 113.621 237.91 114.207C238.496 114.598 238.984 114.598 239.375 114.207ZM90.5469 21.043C90.3516 19.6758 90.1562 18.5039 89.9609 17.5273C89.7656 16.3555 89.375 15.2812 88.7891 14.3047C87.8125 15.6719 87.6172 16.4531 88.2031 16.6484C88.7891 16.6484 89.082 17.0391 89.082 17.8203C88.8867 18.9922 88.3984 19.8711 87.6172 20.457C87.0312 20.8477 86.25 21.3359 85.2734 21.9219C84.4922 22.3125 83.7109 22.8008 82.9297 23.3867C82.1484 23.9727 81.7578 24.8516 81.7578 26.0234C83.3203 24.2656 85.0781 23.6797 87.0312 24.2656C87.0312 23.2891 87.4219 22.7031 88.2031 22.5078C89.1797 22.1172 89.9609 21.6289 90.5469 21.043ZM79.707 27.1953C78.9258 26.8047 77.9492 27 76.7773 27.7812C75.8008 28.5625 75.5078 29.3438 75.8984 30.125C77.4609 29.3438 78.4375 28.8555 78.8281 28.6602C79.2188 28.2695 79.5117 27.7812 79.707 27.1953ZM96.6992 41.8438C95.1367 41.0625 93.6719 41.4531 92.3047 43.0156C91.1328 44.3828 90.3516 45.8477 89.9609 47.4102C90.7422 47.2148 91.3281 47.0195 91.7188 46.8242C92.3047 46.4336 93.0859 46.3359 94.0625 46.5312C94.0625 45.1641 94.5508 44.3828 95.5273 44.1875C96.5039 43.9922 96.8945 43.2109 96.6992 41.8438ZM240.254 142.625C237.52 143.406 236.055 143.309 235.859 142.332C235.859 141.16 235.469 140.574 234.688 140.574C235.078 139.598 235.469 139.012 235.859 138.816C236.445 138.621 237.227 138.426 238.203 138.23C237.812 137.254 237.91 136.668 238.496 136.473C239.082 136.082 239.375 135.398 239.375 134.422C239.375 132.078 239.082 130.809 238.496 130.613C237.91 130.223 237.617 129.539 237.617 128.562C236.641 129.344 235.664 129.734 234.688 129.734C233.711 129.539 232.637 129.637 231.465 130.027C232.832 131.98 233.809 132.859 234.395 132.664C234.98 132.469 235.371 132.859 235.566 133.836C234.785 133.641 234.102 133.738 233.516 134.129C232.93 134.52 232.344 134.91 231.758 135.301C231.172 135.496 230.586 135.594 230 135.594C229.609 135.594 229.316 135.105 229.121 134.129C228.34 135.496 227.852 136.473 227.656 137.059C227.656 137.645 228.047 138.035 228.828 138.23C227.852 138.426 226.387 138.523 224.434 138.523C223.848 139.5 223.848 140.379 224.434 141.16C225.02 141.941 224.727 142.527 223.555 142.918C223.359 141.16 222.383 139.988 220.625 139.402C222.773 137.84 223.848 137.254 223.848 137.645C223.848 138.035 224.141 138.133 224.727 137.938C224.727 136.57 224.629 135.301 224.434 134.129C224.238 132.957 224.922 132.078 226.484 131.492C227.852 131.688 228.633 131.59 228.828 131.199C229.219 130.809 229.609 130.418 230 130.027C229.219 129.637 228.438 129.441 227.656 129.441C227.07 129.441 226.289 129.441 225.312 129.441C224.922 131.199 224.043 132.469 222.676 133.25C221.309 133.836 220.137 134.617 219.16 135.594C217.598 136.961 216.621 137.84 216.23 138.23C215.84 138.426 215.156 138.426 214.18 138.23C213.789 139.012 213.496 139.793 213.301 140.574C213.105 141.16 212.324 141.355 210.957 141.16C210.176 142.527 209.297 143.797 208.32 144.969C207.344 146.141 206.367 147.215 205.391 148.191C205.781 149.168 205.879 150.34 205.684 151.707C205.488 153.074 205 154.148 204.219 154.93C204.414 157.664 204.707 159.715 205.098 161.082C205.684 162.254 205.488 163.328 204.512 164.305C205.488 164.891 206.172 165.184 206.562 165.184C207.148 165.184 207.734 165.086 208.32 164.891C210.078 164.305 211.25 163.426 211.836 162.254C212.617 160.887 213.594 160.496 214.766 161.082C214.18 162.254 213.691 163.328 213.301 164.305C213.105 165.281 212.324 165.672 210.957 165.477C210.566 166.453 210.078 167.234 209.492 167.82C209.102 168.406 208.418 168.504 207.441 168.113C206.074 170.848 205.098 173.094 204.512 174.852C204.121 176.609 204.121 178.27 204.512 179.832C205.684 179.051 206.953 178.367 208.32 177.781C209.883 177.195 211.445 176.512 213.008 175.73C215.352 174.559 217.207 173.68 218.574 173.094C219.941 172.312 220.82 172.605 221.211 173.973C220.625 174.559 219.844 175.047 218.867 175.438C217.891 175.633 217.109 176.023 216.523 176.609C215.352 177.977 214.863 178.758 215.059 178.953C215.449 178.953 215.449 179.148 215.059 179.539C214.277 179.344 213.691 179.441 213.301 179.832C212.91 180.027 212.422 179.93 211.836 179.539C210.078 181.688 208.516 182.664 207.148 182.469C207.344 184.031 206.953 185.008 205.977 185.398C205.195 185.789 204.609 186.277 204.219 186.863C204.023 187.84 204.023 188.621 204.219 189.207C204.414 189.598 204.414 190.281 204.219 191.258C205.391 192.43 205.977 193.504 205.977 194.48C207.93 193.895 209.492 193.016 210.664 191.844C209.883 192.82 209.102 193.602 208.32 194.188C207.734 194.773 207.148 195.457 206.562 196.238C206.172 197.02 205.684 197.898 205.098 198.875C204.707 199.656 204.121 200.242 203.34 200.633C203.34 202.195 203.34 203.367 203.34 204.148C203.34 204.734 202.852 205.516 201.875 206.492C204.023 205.125 205.195 204.051 205.391 203.27C205.781 202.488 206.758 202.195 208.32 202.391C209.492 202.391 210.176 202.098 210.371 201.512C210.762 200.73 211.738 200.633 213.301 201.219C214.668 199.07 215.547 197.996 215.938 197.996C216.523 197.801 216.914 197.508 217.109 197.117C218.086 197.508 219.062 197.605 220.039 197.41C221.016 197.215 221.602 197.898 221.797 199.461C219.844 199.07 218.379 199.363 217.402 200.34C216.621 201.121 215.449 201.512 213.887 201.512C212.324 203.465 210.664 205.125 208.906 206.492C207.148 207.859 205.195 209.227 203.047 210.594C203.438 212.547 203.047 213.816 201.875 214.402C200.703 214.988 200.41 215.965 200.996 217.332C201.973 216.355 203.047 215.477 204.219 214.695C205.586 213.719 206.855 213.133 208.027 212.938C208.809 212.156 209.395 211.375 209.785 210.594C210.371 209.812 211.055 209.227 211.836 208.836C212.031 208.836 212.324 208.738 212.715 208.543C213.105 208.348 213.594 208.25 214.18 208.25C214.766 208.055 215.352 207.957 215.938 207.957C216.523 207.762 216.816 207.371 216.816 206.785C217.012 206.004 217.598 206.004 218.574 206.785C219.551 207.371 219.844 208.25 219.453 209.422C217.109 210.203 215.645 211.18 215.059 212.352C214.668 213.328 213.789 214.012 212.422 214.402C211.055 212.84 210.176 212.254 209.785 212.645C209.59 212.84 209.297 213.035 208.906 213.23C209.297 214.012 209.785 214.5 210.371 214.695C210.957 214.891 211.543 215.184 212.129 215.574C211.348 216.355 210.566 216.453 209.785 215.867C209.004 215.281 208.418 215.184 208.027 215.574C207.832 217.723 207.441 218.797 206.855 218.797C206.465 218.602 206.465 218.797 206.855 219.383C209.199 219.383 211.641 219.285 214.18 219.09C216.719 218.699 218.672 217.918 220.039 216.746C224.922 217.918 228.73 217.723 231.465 216.16C234.199 214.402 236.934 213.23 239.668 212.645C238.887 211.473 238.398 210.008 238.203 208.25C238.203 206.492 238.008 205.027 237.617 203.855C236.641 204.637 235.566 205.125 234.395 205.32C232.637 205.125 231.66 204.93 231.465 204.734C231.465 204.344 231.465 203.953 231.465 203.562C229.512 203.562 228.242 203.758 227.656 204.148C227.266 204.539 226.777 204.93 226.191 205.32C225.605 205.711 225.02 206.102 224.434 206.492C224.043 206.688 223.457 206.492 222.676 205.906C220.918 206.688 219.746 206.98 219.16 206.785C218.77 206.59 218.379 206.297 217.988 205.906C218.77 205.516 219.648 205.125 220.625 204.734C221.602 204.148 221.699 203.367 220.918 202.391C222.676 202.586 224.238 202.879 225.605 203.27C226.973 203.66 228.242 203.367 229.414 202.391C230.781 200.633 231.758 199.949 232.344 200.34C232.93 200.535 233.613 200.73 234.395 200.926C234.785 200.34 235.273 200.145 235.859 200.34C236.641 200.34 237.227 200.242 237.617 200.047C238.008 199.461 238.105 198.582 237.91 197.41C237.91 196.043 237.715 195.164 237.324 194.773C236.348 194.969 235.664 195.164 235.273 195.359C235.078 195.555 234.688 195.457 234.102 195.066C233.711 196.043 232.93 196.727 231.758 197.117C230.586 197.508 229.805 197.117 229.414 195.945C230.195 196.336 230.684 196.141 230.879 195.359C231.27 194.578 231.855 194.188 232.637 194.188C232.051 193.992 231.367 193.895 230.586 193.895C229.805 193.699 229.316 193.113 229.121 192.137C229.902 191.355 230.293 190.672 230.293 190.086C230.488 189.305 230.586 188.426 230.586 187.449C228.438 187.645 227.363 187.742 227.363 187.742C227.949 187.156 228.438 186.57 228.828 185.984C229.219 185.398 229.707 184.91 230.293 184.52C229.902 185.496 230.098 186.277 230.879 186.863C231.66 187.449 232.539 187.84 233.516 188.035C233.516 187.059 234.004 186.57 234.98 186.57C235.957 186.57 236.445 186.082 236.445 185.105C235.469 184.715 234.688 184.812 234.102 185.398C233.711 185.789 233.125 185.984 232.344 185.984C232.344 183.641 232.344 182.273 232.344 181.883C232.148 181.688 231.074 181.688 229.121 181.883C227.363 182.078 225.898 182.273 224.727 182.469C223.945 183.641 222.969 184.812 221.797 185.984C220.625 186.961 219.16 187.059 217.402 186.277C218.574 185.301 219.258 185.008 219.453 185.398C219.648 185.594 220.039 185.594 220.625 185.398C220.625 183.836 220.625 182.566 220.625 181.59C220.82 180.613 221.797 180.027 223.555 179.832C223.555 179.051 223.848 178.27 224.434 177.488C225.02 176.707 225.508 176.512 225.898 176.902C225.117 179.051 224.727 180.418 224.727 181.004C224.727 181.395 225.02 181.59 225.605 181.59C226.777 181.004 227.656 180.711 228.242 180.711C228.828 180.516 229.316 180.711 229.707 181.297C229.121 178.758 229.121 177.391 229.707 177.195C230.684 177.586 231.465 177.781 232.051 177.781C232.832 177.586 233.516 177.879 234.102 178.66C234.688 176.512 235.469 175.438 236.445 175.438C237.617 175.242 238.105 174.461 237.91 173.094C237.129 172.898 236.25 172.898 235.273 173.094C234.492 173.094 233.613 173.094 232.637 173.094C232.832 173.094 232.93 172.605 232.93 171.629C233.125 170.652 233.711 170.262 234.688 170.457C235.859 170.848 236.738 171.043 237.324 171.043C238.105 170.848 238.301 170.262 237.91 169.285C237.324 168.309 237.031 167.527 237.031 166.941C237.031 166.16 236.836 165.574 236.445 165.184C236.641 163.816 236.836 162.84 237.031 162.254C237.422 161.668 237.812 160.789 238.203 159.617C237.031 158.445 235.957 157.859 234.98 157.859C235.762 156.688 236.152 155.906 236.152 155.516C236.348 154.93 236.934 154.832 237.91 155.223C237.52 154.051 237.52 153.367 237.91 153.172C238.496 152.781 238.691 152.098 238.496 151.121C236.934 150.926 235.762 151.023 234.98 151.414C234.199 151.805 233.32 152.195 232.344 152.586C231.953 151.023 232.246 150.242 233.223 150.242C234.395 150.242 235.469 150.047 236.445 149.656C238.398 147.703 239.277 146.141 239.082 144.969C238.887 143.797 239.277 143.016 240.254 142.625ZM93.7695 31.5898C92.4023 30.6133 91.3281 30.418 90.5469 31.0039C89.7656 31.5898 89.082 32.1758 88.4961 32.7617C87.9102 33.3477 87.2266 33.9336 86.4453 34.5195C85.6641 34.9102 84.7852 35.0078 83.8086 34.8125C83.418 35.5938 82.9297 36.2773 82.3438 36.8633C81.9531 37.4492 81.5625 38.0352 81.1719 38.6211C80.5859 38.8164 79.707 39.1094 78.5352 39.5C77.5586 39.8906 76.582 40.3789 75.6055 40.9648C74.8242 41.5508 74.1406 42.332 73.5547 43.3086C72.9688 44.0898 72.8711 44.9688 73.2617 45.9453C74.2383 45.5547 74.8242 45.0664 75.0195 44.4805C75.2148 43.6992 75.8008 43.4062 76.7773 43.6016C77.7539 42.4297 78.5352 41.5508 79.1211 40.9648C79.9023 40.1836 80.6836 39.5 81.4648 38.9141C84.0039 37.7422 86.25 36.7656 88.2031 35.9844C90.1562 35.0078 92.0117 33.543 93.7695 31.5898ZM58.0273 11.375C57.2461 11.1797 56.2695 11.375 55.0977 11.9609C53.9258 12.3516 53.3398 13.0352 53.3398 14.0117C54.3164 13.8164 55.0977 13.4258 55.6836 12.8398C56.4648 12.2539 57.2461 11.7656 58.0273 11.375ZM91.7188 25.1445C88.5938 25.3398 85.5664 26.3164 82.6367 28.0742C79.9023 29.832 77.3633 31.1992 75.0195 32.1758C73.0664 34.3242 71.1133 35.9844 69.1602 37.1562C67.207 38.3281 65.6445 39.8906 64.4727 41.8438C65.4492 43.7969 65.6445 44.7734 65.0586 44.7734C64.668 44.5781 64.5703 44.6758 64.7656 45.0664C67.6953 43.6992 70.332 42.1367 72.6758 40.3789C75.2148 38.4258 77.8516 36.668 80.5859 35.1055C82.3438 34.7148 83.6133 33.8359 84.3945 32.4688C85.3711 30.9062 86.9336 29.9297 89.082 29.5391C90.8398 27.9766 91.7188 26.5117 91.7188 25.1445ZM236.738 192.723C236.152 192.137 235.566 191.844 234.98 191.844C234.395 191.844 233.809 191.941 233.223 192.137C233.027 193.113 233.32 193.504 234.102 193.309C235.078 192.918 235.957 192.723 236.738 192.723ZM73.2617 19.5781C71.6992 18.2109 70.625 17.8203 70.0391 18.4062C69.6484 18.9922 68.8672 19.3828 67.6953 19.5781C64.7656 18.2109 62.3242 18.3086 60.3711 19.8711C60.5664 22.0195 60.1758 22.9961 59.1992 22.8008C58.418 22.4102 57.6367 22.4102 56.8555 22.8008C56.6602 23.7773 56.9531 24.3633 57.7344 24.5586C58.5156 24.7539 59.1016 25.1445 59.4922 25.7305C60.6641 27.8789 61.3477 28.8555 61.543 28.6602C61.7383 28.2695 62.1289 28.1719 62.7148 28.3672C63.4961 27.1953 64.2773 26.0234 65.0586 24.8516C67.207 25.0469 68.3789 24.6562 68.5742 23.6797C68.7695 22.7031 69.3555 22.4102 70.332 22.8008C70.7227 21.8242 70.7227 21.043 70.332 20.457C70.1367 19.8711 70.1367 19.3828 70.332 18.9922L73.2617 19.5781ZM95.5273 36.2773C93.5742 36.668 91.7188 36.9609 89.9609 37.1562C88.3984 37.3516 87.5195 38.2305 87.3242 39.793C86.3477 40.1836 85.0781 40.5742 83.5156 40.9648C82.1484 41.1602 81.3672 41.9414 81.1719 43.3086C80.3906 44.0898 79.5117 44.4805 78.5352 44.4805C77.7539 44.4805 76.875 44.6758 75.8984 45.0664C74.3359 46.2383 73.2617 47.3125 72.6758 48.2891C72.0898 49.2656 71.0156 49.8516 69.4531 50.0469C69.0625 51.0234 69.0625 51.9023 69.4531 52.6836C69.8438 53.2695 69.9414 54.1484 69.7461 55.3203C72.4805 55.125 74.3359 54.4414 75.3125 53.2695C76.2891 51.9023 77.8516 51.0234 80 50.6328C80.5859 50.0469 80.8789 49.4609 80.8789 48.875C80.8789 48.2891 81.1719 47.8008 81.7578 47.4102H84.9805C85.5664 46.2383 86.3477 45.3594 87.3242 44.7734C88.4961 43.9922 89.5703 43.2109 90.5469 42.4297C91.7188 41.6484 92.6953 40.8672 93.4766 40.0859C94.4531 39.1094 95.1367 37.8398 95.5273 36.2773ZM87.6172 48.2891C87.0312 48.2891 86.3477 48.2891 85.5664 48.2891C84.9805 48.2891 84.4922 48.0938 84.1016 47.7031C84.2969 48.0938 84.2969 48.6797 84.1016 49.4609C84.1016 50.0469 84.2969 50.5352 84.6875 50.9258C85.6641 50.7305 86.25 50.3398 86.4453 49.7539C86.6406 49.168 87.0312 48.6797 87.6172 48.2891ZM67.4023 32.4688C67.0117 31.4922 66.4258 31.3945 65.6445 32.1758C64.8633 32.7617 64.2773 33.543 63.8867 34.5195C64.668 34.9102 65.2539 34.7148 65.6445 33.9336C66.2305 33.1523 66.8164 32.6641 67.4023 32.4688ZM100.508 57.957C99.3359 57.5664 97.8711 57.6641 96.1133 58.25C94.5508 58.6406 93.3789 59.0312 92.5977 59.4219C92.207 60.9844 91.6211 61.7656 90.8398 61.7656C90.0586 61.5703 89.2773 61.7656 88.4961 62.3516C90.0586 59.4219 91.9141 57.4688 94.0625 56.4922C96.4062 55.3203 98.457 54.1484 100.215 52.9766C97.4805 51.0234 95.7227 50.7305 94.9414 52.0977C94.1602 53.4648 92.793 54.3438 90.8398 54.7344C88.1055 55.3203 86.3477 56.3945 85.5664 57.957C84.9805 59.5195 84.1016 60.6914 82.9297 61.4727C81.9531 60.4961 81.5625 59.6172 81.7578 58.8359C82.1484 58.0547 82.7344 57.3711 83.5156 56.7852C84.4922 56.1992 85.5664 55.7109 86.7383 55.3203C87.9102 54.7344 88.8867 54.2461 89.668 53.8555C91.2305 51.9023 92.4023 50.7305 93.1836 50.3398C93.9648 49.7539 94.7461 49.168 95.5273 48.582C96.5039 47.9961 96.6016 47.5078 95.8203 47.1172C95.8203 48.4844 95.2344 48.9727 94.0625 48.582C92.8906 48.1914 92.1094 48.3867 91.7188 49.168C91.1328 50.1445 90.3516 50.6328 89.375 50.6328C88.5938 50.6328 87.7148 51.0234 86.7383 51.8047C85.957 52.7812 85.0781 53.4648 84.1016 53.8555C83.125 54.0508 82.5391 54.7344 82.3438 55.9062C81.7578 55.5156 80.8789 55.7109 79.707 56.4922C78.5352 57.0781 77.8516 57.957 77.6562 59.1289C76.2891 59.1289 75.4102 59.5195 75.0195 60.3008C74.6289 61.082 73.8477 61.5703 72.6758 61.7656C74.4336 63.1328 75.7031 63.3281 76.4844 62.3516C77.2656 61.1797 78.2422 60.9844 79.4141 61.7656C78.0469 64.1094 77.0703 65.4766 76.4844 65.8672C75.8984 66.2578 75.6055 66.9414 75.6055 67.918C76.1914 67.7227 76.7773 67.4297 77.3633 67.0391C78.1445 66.4531 78.9258 65.9648 79.707 65.5742C80.4883 64.9883 81.2695 64.5977 82.0508 64.4023C82.832 64.207 83.7109 64.3047 84.6875 64.6953C84.8828 63.7188 85.2734 63.0352 85.8594 62.6445C86.6406 62.2539 87.3242 61.8633 87.9102 61.4727C88.4961 63.0352 89.375 63.7188 90.5469 63.5234C91.7188 63.3281 93.0859 63.2305 94.6484 63.2305C95.2344 61.4727 95.918 60.0078 96.6992 58.8359C97.6758 57.6641 98.9453 57.3711 100.508 57.957ZM40.1562 10.7891C39.1797 10.3984 38.1055 10.3984 36.9336 10.7891C35.957 10.9844 34.8828 10.9844 33.7109 10.7891C34.1016 11.7656 34.7852 12.3516 35.7617 12.5469C36.9336 12.5469 38.1055 12.6445 39.2773 12.8398L40.1562 10.7891ZM108.125 78.4648C106.562 78.2695 105.195 78.4648 104.023 79.0508C102.852 79.6367 101.777 80.418 100.801 81.3945C99.4336 82.7617 98.6523 83.6406 98.457 84.0312C98.2617 84.2266 97.6758 84.1289 96.6992 83.7383C97.8711 85.1055 98.75 85.3008 99.3359 84.3242C100.117 83.3477 101.094 83.0547 102.266 83.4453C102.656 82.4688 103.535 81.6875 104.902 81.1016C106.27 80.3203 107.344 79.4414 108.125 78.4648ZM241.133 218.504C239.961 217.527 239.082 217.039 238.496 217.039C238.105 217.039 237.617 217.039 237.031 217.039C236.641 217.039 236.25 217.137 235.859 217.332C235.469 217.527 235.371 218.016 235.566 218.797C237.324 218.797 238.594 218.797 239.375 218.797C240.156 218.797 240.742 218.699 241.133 218.504ZM110.762 88.4258C109.004 88.4258 107.93 88.5234 107.539 88.7188C107.93 89.6953 108.418 89.9883 109.004 89.5977C109.785 89.207 110.371 88.8164 110.762 88.4258ZM100.215 77.5859C98.8477 78.3672 97.4805 78.8555 96.1133 79.0508C94.9414 79.0508 94.3555 79.832 94.3555 81.3945C95.918 81.3945 96.9922 81.0039 97.5781 80.2227C98.3594 79.4414 99.2383 78.5625 100.215 77.5859ZM102.266 59.4219C99.5312 59.6172 97.9688 60.1055 97.5781 60.8867C97.1875 61.668 96.5039 62.2539 95.5273 62.6445C92.793 64.207 90.9375 65.5742 89.9609 66.7461C88.9844 67.918 88.0078 68.5039 87.0312 68.5039C88.0078 66.7461 88.6914 65.2812 89.082 64.1094C86.3477 65.2812 83.8086 66.1602 81.4648 66.7461C81.4648 67.7227 80.9766 68.4062 80 68.7969C79.2188 69.1875 78.9258 69.7734 79.1211 70.5547C78.3398 71.3359 77.5586 71.9219 76.7773 72.3125C75.9961 72.7031 75.8984 73.3867 76.4844 74.3633C77.2656 74.168 78.0469 73.875 78.8281 73.4844C79.6094 72.8984 80.3906 72.4102 81.1719 72.0195C81.9531 71.6289 82.6367 71.4336 83.2227 71.4336C84.0039 71.2383 84.6875 71.4336 85.2734 72.0195C84.8828 72.9961 84.1992 73.4844 83.2227 73.4844C82.2461 73.4844 81.3672 73.582 80.5859 73.7773C80.1953 74.7539 79.9023 75.3398 79.707 75.5352C79.707 75.7305 80 76.2188 80.5859 77C81.1719 77.5859 81.4648 78.4648 81.4648 79.6367C81.4648 80.6133 80.9766 81.1016 80 81.1016C82.3438 82.0781 84.3945 81.7852 86.1523 80.2227C87.9102 78.6602 89.7656 77.0977 91.7188 75.5352C93.4766 75.3398 94.5508 74.8516 94.9414 74.0703C95.332 73.2891 95.8203 72.6055 96.4062 72.0195C98.5547 72.6055 99.6289 72.8008 99.6289 72.6055C99.6289 72.2148 99.7266 71.8242 99.9219 71.4336C99.7266 70.457 99.8242 69.6758 100.215 69.0898C100.801 68.5039 101.387 67.918 101.973 67.332C99.6289 67.7227 98.1641 68.0156 97.5781 68.2109C97.1875 68.2109 96.6992 68.3086 96.1133 68.5039C95.5273 69.2852 94.9414 70.0664 94.3555 70.8477C93.7695 71.4336 92.8906 71.7266 91.7188 71.7266C90.9375 73.0938 89.668 74.2656 87.9102 75.2422C89.082 72.5078 90.2539 70.8477 91.4258 70.2617C92.5977 69.6758 93.9648 69.2852 95.5273 69.0898C96.5039 67.332 97.9688 66.0625 99.9219 65.2812C102.07 64.3047 102.852 62.3516 102.266 59.4219ZM20.2344 4.92969C20.4297 3.95312 19.9414 3.5625 18.7695 3.75781C17.793 3.75781 17.1094 3.95312 16.7188 4.34375C17.1094 4.73438 18.2812 4.92969 20.2344 4.92969ZM114.57 96.6289C113.008 96.6289 111.738 96.5312 110.762 96.3359C109.785 96.1406 109.102 96.8242 108.711 98.3867C107.148 98.582 106.074 99.2656 105.488 100.438C104.902 101.414 103.73 101.805 101.973 101.609C103.34 102.195 104.316 102.684 104.902 103.074C105.488 103.465 105.977 103.465 106.367 103.074C107.93 101.316 108.613 100.34 108.418 100.145C108.223 99.9492 108.223 99.6562 108.418 99.2656C109.395 99.2656 110.078 99.168 110.469 98.9727C111.055 98.7773 111.934 98.7773 113.105 98.9727L114.57 96.6289ZM92.0117 87.5469C91.6211 87.7422 91.0352 87.8398 90.2539 87.8398C89.668 87.6445 89.1797 87.7422 88.7891 88.1328C88.9844 88.7188 89.4727 88.9141 90.2539 88.7188C91.2305 88.3281 91.8164 87.9375 92.0117 87.5469ZM94.6484 82.8594C92.3047 83.6406 90.6445 84.3242 89.668 84.9102C88.8867 85.3008 88.1055 85.8867 87.3242 86.668C84.7852 87.6445 83.125 88.9141 82.3438 90.4766C84.4922 90.8672 85.957 90.3789 86.7383 89.0117C87.5195 87.6445 88.6914 86.8633 90.2539 86.668C90.2539 85.6914 90.9375 85.1055 92.3047 84.9102C93.6719 84.7148 94.4531 84.0312 94.6484 82.8594ZM118.672 110.398C118.672 109.617 118.574 108.934 118.379 108.348C118.184 107.566 117.988 106.883 117.793 106.297C116.426 106.688 115.254 106.883 114.277 106.883C113.496 106.883 112.617 107.078 111.641 107.469C112.812 106.688 113.691 106.102 114.277 105.711C114.863 105.125 115.352 105.223 115.742 106.004C115.352 104.637 115.254 103.855 115.449 103.66C115.84 103.27 116.035 102.781 116.035 102.195C114.277 101.219 113.203 100.73 112.812 100.73C112.617 100.535 112.324 100.438 111.934 100.438C110.957 102 110.273 103.172 109.883 103.953C109.688 104.539 109.297 104.637 108.711 104.246C105.586 104.637 103.633 105.223 102.852 106.004C102.07 106.785 101.289 106.59 100.508 105.418C100.508 103.074 100.801 101.707 101.387 101.316C101.973 100.73 102.461 100.145 102.852 99.5586C105.586 98.3867 107.344 97.1172 108.125 95.75C108.906 94.3828 110.078 93.3086 111.641 92.5273C110.859 92.332 109.883 92.4297 108.711 92.8203C107.734 93.2109 106.758 93.3086 105.781 93.1133C105.391 95.457 104.707 96.9219 103.73 97.5078C102.754 97.8984 101.777 98.0938 100.801 98.0938C100.02 95.3594 99.2383 94.2852 98.457 94.8711C97.6758 95.2617 97.1875 95.75 96.9922 96.3359C95.0391 96.3359 94.0625 96.5312 94.0625 96.9219C94.2578 97.3125 94.1602 97.5078 93.7695 97.5078C94.9414 95.5547 95.625 94.6758 95.8203 94.8711C96.0156 95.0664 96.3086 95.1641 96.6992 95.1641C96.8945 93.4062 97.1875 92.332 97.5781 91.9414C98.1641 91.3555 99.1406 91.1602 100.508 91.3555C100.117 93.1133 100.117 94.0898 100.508 94.2852C101.094 94.4805 101.68 94.4805 102.266 94.2852C102.852 94.0898 103.438 93.7969 104.023 93.4062C104.805 93.0156 105.488 92.8203 106.074 92.8203C105.684 92.625 105.098 92.4297 104.316 92.2344C103.535 91.8438 102.852 91.8438 102.266 92.2344C102.656 91.2578 103.047 90.4766 103.438 89.8906C104.023 89.1094 104.902 88.5234 106.074 88.1328C107.441 86.5703 108.223 85.4961 108.418 84.9102C108.613 84.3242 109.004 84.0312 109.59 84.0312C109.199 83.25 108.809 82.8594 108.418 82.8594C108.027 82.8594 107.539 83.0547 106.953 83.4453C106.367 83.6406 105.684 83.9336 104.902 84.3242C104.316 84.5195 103.73 84.5195 103.145 84.3242C101.191 85.8867 100.117 87.1562 99.9219 88.1328C98.3594 88.5234 97.0898 88.4258 96.1133 87.8398C95.1367 87.2539 94.1602 86.7656 93.1836 86.375C94.3555 87.3516 95.2344 88.1328 95.8203 88.7188C93.8672 90.2812 92.3047 91.7461 91.1328 93.1133C90.1562 94.4805 88.8867 94.8711 87.3242 94.2852C87.3242 95.457 86.9336 96.5312 86.1523 97.5078C85.5664 98.2891 84.8828 98.582 84.1016 98.3867C84.2969 99.3633 84.1992 100.242 83.8086 101.023C83.6133 101.805 84.0039 102.586 84.9805 103.367C86.1523 102.977 86.9336 102.391 87.3242 101.609C87.9102 100.633 88.8867 100.242 90.2539 100.438C93.3789 100.633 95.918 100.828 97.8711 101.023C96.6992 102 95.1367 102.586 93.1836 102.781C91.4258 102.781 90.0586 102.879 89.082 103.074C90.2539 103.855 91.1328 104.246 91.7188 104.246C92.3047 104.051 92.5977 104.246 92.5977 104.832C90.6445 105.418 89.375 106.102 88.7891 106.883C88.3984 107.469 88.0078 108.152 87.6172 108.934C87.2266 109.715 86.9336 110.496 86.7383 111.277C86.7383 111.863 87.1289 112.449 87.9102 113.035C88.6914 111.473 89.082 110.594 89.082 110.398C89.2773 110.008 89.5703 109.812 89.9609 109.812C90.3516 109.617 90.7422 109.324 91.1328 108.934C91.5234 108.543 92.0117 108.055 92.5977 107.469C94.7461 106.492 96.3086 106.004 97.2852 106.004C98.457 105.809 98.8477 105.418 98.457 104.832C98.6523 105.027 99.1406 105.516 99.9219 106.297C100.703 107.078 101.289 107.664 101.68 108.055C100.508 107.469 99.6289 107.566 99.043 108.348C98.457 109.129 97.7734 109.52 96.9922 109.52C96.9922 110.301 96.7969 110.887 96.4062 111.277C96.0156 111.668 95.7227 112.156 95.5273 112.742C94.7461 112.352 94.2578 111.863 94.0625 111.277C93.8672 110.691 93.6719 110.105 93.4766 109.52C92.6953 110.496 92.3047 111.277 92.3047 111.863C92.5 112.254 92.6953 112.84 92.8906 113.621C91.9141 114.402 90.9375 115.379 89.9609 116.551C89.1797 117.527 88.8867 118.699 89.082 120.066C89.8633 120.848 90.8398 121.336 92.0117 121.531C92.9883 121.141 93.6719 120.555 94.0625 119.773C94.6484 118.797 95.625 118.406 96.9922 118.602C96.9922 117.625 97.2852 117.039 97.8711 116.844C98.457 116.648 99.1406 116.453 99.9219 116.258C99.7266 117.43 99.2383 118.113 98.457 118.309C97.8711 118.504 97.4805 118.992 97.2852 119.773C99.043 119.578 100.605 119.578 101.973 119.773C103.73 116.844 105.977 115.184 108.711 114.793C111.641 114.402 113.789 113.23 115.156 111.277C116.328 111.082 117.109 110.984 117.5 110.984C117.891 110.789 118.281 110.594 118.672 110.398ZM90.5469 93.1133C90.1562 91.9414 89.375 91.3555 88.2031 91.3555C87.0312 91.3555 86.0547 91.4531 85.2734 91.6484C86.6406 92.2344 87.7148 92.5273 88.4961 92.5273C89.4727 92.332 90.1562 92.5273 90.5469 93.1133ZM126.582 130.32C126.582 128.172 125.996 127.293 124.824 127.684C123.848 128.074 122.676 128.27 121.309 128.27C120.918 129.832 119.941 130.613 118.379 130.613C117.012 131.199 116.23 131.785 116.035 132.371C116.035 132.762 115.742 132.957 115.156 132.957C115.938 133.934 115.84 134.617 114.863 135.008C113.887 135.398 113.691 135.984 114.277 136.766C115.84 135.398 117.695 134.227 119.844 133.25C122.188 132.273 124.434 131.297 126.582 130.32ZM121.895 120.066C120.527 118.309 119.258 117.723 118.086 118.309C117.109 118.895 116.133 118.992 115.156 118.602C115.742 117.625 116.523 117.039 117.5 116.844C118.477 116.648 119.258 116.16 119.844 115.379C119.258 113.23 118.281 112.449 116.914 113.035C115.742 113.426 114.375 113.816 112.812 114.207C108.906 115.77 105.781 118.406 103.438 122.117C102.852 121.727 101.973 121.531 100.801 121.531C99.8242 121.531 99.3359 122.02 99.3359 122.996C98.9453 123.973 98.2617 124.559 97.2852 124.754C96.5039 124.754 95.918 125.145 95.5273 125.926C96.1133 126.707 95.918 127.195 94.9414 127.391C94.1602 127.586 93.5742 128.172 93.1836 129.148C93.7695 129.734 94.3555 130.125 94.9414 130.32C95.7227 130.516 95.918 131.102 95.5273 132.078C96.5039 132.859 97.1875 132.957 97.5781 132.371C97.9688 131.59 98.8477 131.297 100.215 131.492C100.215 130.32 100.605 129.93 101.387 130.32C102.168 130.516 102.949 130.613 103.73 130.613C101.387 131.59 100.312 132.176 100.508 132.371C100.898 132.566 100.996 133.055 100.801 133.836C100.41 134.227 99.9219 134.52 99.3359 134.715C98.9453 134.715 98.457 134.91 97.8711 135.301C100.41 135.301 102.266 134.422 103.438 132.664C104.805 130.906 106.855 129.832 109.59 129.441C111.152 127.293 113.105 125.633 115.449 124.461C117.793 123.289 119.941 121.824 121.895 120.066ZM98.457 122.41C98.457 121.434 98.1641 120.848 97.5781 120.652C96.9922 120.262 96.3086 119.969 95.5273 119.773C94.1602 121.727 93.7695 122.703 94.3555 122.703C94.9414 122.703 95.4297 122.898 95.8203 123.289L98.457 122.41ZM117.207 129.441C116.621 127.879 115.742 127.488 114.57 128.27C113.398 129.051 112.422 129.344 111.641 129.148C111.055 130.125 110.566 130.906 110.176 131.492C109.98 132.078 109.688 132.566 109.297 132.957C108.125 132.957 107.344 132.762 106.953 132.371C106.562 131.785 106.172 131.688 105.781 132.078C104.414 133.836 103.535 135.398 103.145 136.766C102.754 137.938 101.777 138.719 100.215 139.109C100.02 140.086 99.8242 140.867 99.6289 141.453C99.4336 142.039 99.4336 142.82 99.6289 143.797C101.191 143.406 102.266 142.82 102.852 142.039C103.633 141.258 104.414 140.379 105.195 139.402C106.172 138.621 107.051 137.645 107.832 136.473C108.809 135.301 110.078 134.52 111.641 134.129C111.836 132.566 112.52 131.59 113.691 131.199C114.863 130.613 116.035 130.027 117.207 129.441ZM130.684 138.523C129.316 138.914 128.145 139.012 127.168 138.816C126.191 138.426 125.508 138.816 125.117 139.988C123.75 139.012 122.969 138.719 122.773 139.109C122.578 139.305 122.285 139.598 121.895 139.988C123.457 141.551 123.75 142.43 122.773 142.625C121.797 142.625 120.82 142.625 119.844 142.625C118.672 143.992 118.184 144.871 118.379 145.262C118.574 145.457 118.574 145.848 118.379 146.434C117.402 146.434 116.816 146.531 116.621 146.727C116.426 146.922 115.938 146.824 115.156 146.434C115.156 147.41 114.766 148.191 113.984 148.777C113.203 149.363 112.422 149.949 111.641 150.535C111.445 149.559 111.348 148.875 111.348 148.484C111.348 148.094 111.543 147.703 111.934 147.312C113.105 145.75 114.082 144.773 114.863 144.383C115.645 143.797 116.523 143.406 117.5 143.211C117.891 142.82 118.379 142.234 118.965 141.453C119.746 140.672 120.43 139.891 121.016 139.109C121.797 138.328 122.578 137.742 123.359 137.352C124.141 136.766 125.02 136.766 125.996 137.352C124.238 135.789 122.676 135.203 121.309 135.594C120.137 135.984 119.648 136.668 119.844 137.645C118.867 137.84 117.891 138.23 116.914 138.816C116.133 139.402 115.352 139.988 114.57 140.574C113.789 141.16 113.008 141.648 112.227 142.039C111.445 142.43 110.664 142.527 109.883 142.332C108.906 144.09 107.734 145.652 106.367 147.02C105 148.387 103.242 148.484 101.094 147.312C101.875 148.68 102.461 149.656 102.852 150.242C103.242 150.828 103.242 151.902 102.852 153.465C103.828 153.66 104.512 153.758 104.902 153.758C105.293 153.758 105.879 153.953 106.66 154.344C106.465 152.586 106.953 151.512 108.125 151.121C109.688 150.535 110.469 150.535 110.469 151.121C110.664 151.707 111.055 152.195 111.641 152.586C112.617 152.195 113.398 152.098 113.984 152.293C114.766 152.488 115.352 152.098 115.742 151.121C116.133 151.512 116.719 151.609 117.5 151.414C118.281 151.219 118.77 150.828 118.965 150.242C117.988 148.484 117.695 147.605 118.086 147.605C118.477 147.41 118.77 147.117 118.965 146.727C120.918 146.141 122.48 146.141 123.652 146.727C124.824 147.312 125.703 147.117 126.289 146.141C125.508 145.75 124.922 145.652 124.531 145.848C124.141 146.043 123.652 145.945 123.066 145.555C124.824 143.797 126.289 142.625 127.461 142.039C128.828 141.453 129.902 140.281 130.684 138.523ZM135.371 147.02C134.98 146.238 134.297 146.043 133.32 146.434C132.539 146.824 131.66 146.824 130.684 146.434C130.488 148.582 129.902 149.656 128.926 149.656C128.926 150.828 128.438 151.609 127.461 152C126.484 152.195 125.605 152.488 124.824 152.879C124.043 152.879 122.871 153.465 121.309 154.637C119.941 155.613 118.672 156.297 117.5 156.688C116.914 158.055 116.133 158.934 115.156 159.324C114.18 159.715 113.984 160.691 114.57 162.254C113.594 160.887 113.105 159.715 113.105 158.738C113.301 157.762 114.082 157.469 115.449 157.859C116.816 156.492 117.5 155.516 117.5 154.93C117.5 154.148 117.988 153.953 118.965 154.344C119.551 152.781 119.941 151.902 120.137 151.707C120.527 151.316 120.82 151.023 121.016 150.828C121.406 150.633 121.699 150.438 121.895 150.242C122.09 150.047 121.992 149.656 121.602 149.07C120.625 150.047 119.648 151.023 118.672 152C117.891 152.977 116.523 153.367 114.57 153.172C113.203 154.734 111.836 155.516 110.469 155.516C110.469 157.078 109.98 158.055 109.004 158.445C108.027 158.836 107.344 159.52 106.953 160.496C108.125 161.863 108.906 162.449 109.297 162.254C109.883 162.059 110.078 162.449 109.883 163.426C111.445 163.035 112.52 163.035 113.105 163.426C113.887 163.621 114.766 163.328 115.742 162.547C116.719 161.57 117.598 160.789 118.379 160.203C119.16 159.422 120.137 158.836 121.309 158.445C123.066 157.664 124.043 156.785 124.238 155.809C124.629 154.832 125.508 154.539 126.875 154.93C127.266 153.953 127.852 153.172 128.633 152.586C129.414 152 130.195 151.512 130.977 151.121C131.953 150.73 132.832 150.242 133.613 149.656C134.395 149.07 134.98 148.191 135.371 147.02ZM141.816 158.738C141.426 158.348 141.133 157.762 140.938 156.98C140.742 156.199 140.449 155.613 140.059 155.223C137.91 155.613 136.348 156.59 135.371 158.152C134.395 159.52 132.832 160.398 130.684 160.789C129.707 161.18 128.828 161.57 128.047 161.961C127.461 162.156 126.875 162.059 126.289 161.668C126.094 160.887 126.387 160.398 127.168 160.203C128.145 159.812 128.828 159.227 129.219 158.445C126.875 159.031 125.117 159.91 123.945 161.082C122.773 162.059 121.113 162.449 118.965 162.254C118.965 163.23 118.574 163.816 117.793 164.012C117.207 164.207 116.523 164.5 115.742 164.891C116.133 166.258 115.547 167.234 113.984 167.82C112.617 168.406 111.543 169.188 110.762 170.164C111.152 171.531 111.543 172.312 111.934 172.508C112.324 172.508 112.617 172.996 112.812 173.973C114.18 173.387 115.352 172.801 116.328 172.215C117.5 171.434 118.672 170.555 119.844 169.578C121.406 167.82 122.285 166.746 122.48 166.355C122.676 165.965 122.773 165.477 122.773 164.891C125.312 163.914 126.68 163.23 126.875 162.84C127.07 162.254 127.656 162.059 128.633 162.254C127.656 164.207 126.777 165.477 125.996 166.062C125.215 166.453 124.629 167.137 124.238 168.113C125.801 168.504 127.168 168.016 128.34 166.648C129.707 165.086 131.758 164.207 134.492 164.012C134.883 162.449 135.957 161.473 137.715 161.082C139.473 160.691 140.84 159.91 141.816 158.738ZM142.695 164.598C140.938 162.84 139.863 162.059 139.473 162.254C138.691 163.426 138.105 164.402 137.715 165.184C137.324 165.77 136.738 166.355 135.957 166.941C134.59 166.941 133.809 166.746 133.613 166.355C133.613 165.965 133.418 165.672 133.027 165.477C132.051 167.625 131.953 168.602 132.734 168.406C133.516 168.016 133.711 168.113 133.32 168.699C131.172 168.895 129.805 169.48 129.219 170.457C128.828 171.238 128.145 171.531 127.168 171.336C127.168 173.094 125.898 173.973 123.359 173.973C122.578 174.949 121.699 175.828 120.723 176.609C119.746 177.195 118.672 177.781 117.5 178.367C116.328 180.906 116.035 182.371 116.621 182.762C117.207 183.152 117.402 184.129 117.207 185.691C118.184 186.082 118.965 186.082 119.551 185.691C120.137 185.105 120.625 184.52 121.016 183.934C121.797 184.324 122.188 184.91 122.188 185.691C122.188 186.277 122.285 187.059 122.48 188.035C122.871 188.035 123.457 188.133 124.238 188.328C125.215 188.328 125.801 188.816 125.996 189.793C125.215 190.184 124.434 190.672 123.652 191.258C122.871 191.648 122.285 192.137 121.895 192.723C122.09 194.09 122.285 195.555 122.48 197.117C122.871 198.68 123.359 200.242 123.945 201.805C124.727 203.172 125.41 204.539 125.996 205.906C126.777 207.273 127.168 208.543 127.168 209.715C129.902 207.566 131.367 204.93 131.562 201.805C131.953 198.68 133.125 196.238 135.078 194.48C135.078 191.16 135.762 188.133 137.129 185.398C138.496 182.664 139.18 179.832 139.18 176.902C140.156 174.559 140.84 172.996 141.23 172.215C141.621 171.434 141.914 170.75 142.109 170.164C142.5 169.383 142.695 168.699 142.695 168.113C142.891 167.527 142.695 166.941 142.109 166.355C140.742 168.699 140.254 169.969 140.645 170.164C141.035 170.164 141.23 170.457 141.23 171.043C139.082 172.41 137.617 173.387 136.836 173.973C134.688 175.145 132.93 176.414 131.562 177.781C130.391 179.148 129.023 180.125 127.461 180.711C128.242 181.297 128.34 182.078 127.754 183.055C127.168 183.836 126.68 184.422 126.289 184.812C127.07 186.766 128.047 187.742 129.219 187.742C127.07 188.133 125.801 187.84 125.41 186.863C125.02 185.887 124.336 185.203 123.359 184.812C123.164 183.836 123.359 183.152 123.945 182.762C124.727 182.371 125.508 182.371 126.289 182.762C125.117 180.613 124.824 179.539 125.41 179.539C125.996 179.344 126.484 179.051 126.875 178.66C127.07 178.27 127.559 177.977 128.34 177.781C129.121 177.391 129.902 177 130.684 176.609C132.051 174.461 132.637 173.289 132.441 173.094C134.395 171.336 135.566 170.164 135.957 169.578C136.348 168.797 137.129 168.309 138.301 168.113C139.277 167.332 139.961 166.648 140.352 166.062C140.938 165.281 141.719 164.793 142.695 164.598ZM240.84 26.6094C239.277 27.5859 238.203 28.0742 237.617 28.0742C237.227 28.0742 236.836 27.5859 236.445 26.6094C237.812 27.1953 238.691 27.3906 239.082 27.1953C239.668 27 240.254 26.8047 240.84 26.6094ZM240.547 51.8047C239.18 53.3672 238.496 54.5391 238.496 55.3203C237.715 53.7578 237.422 52.8789 237.617 52.6836C237.812 52.293 237.812 51.707 237.617 50.9258L240.547 51.8047ZM235.859 57.957C234.492 58.3477 233.223 58.7383 232.051 59.1289C231.074 59.3242 230.098 60.0078 229.121 61.1797C228.535 59.0312 228.828 57.957 230 57.957C231.172 57.957 232.246 57.8594 233.223 57.6641L235.859 57.957ZM227.07 63.2305C227.461 63.6211 227.07 64.207 225.898 64.9883C224.727 65.5742 223.848 65.6719 223.262 65.2812C224.043 63.3281 224.727 62.4492 225.312 62.6445C226.094 62.6445 226.484 62.3516 226.484 61.7656L227.07 63.2305ZM236.445 142.918C235.469 143.504 234.492 144.285 233.516 145.262C232.734 146.043 231.953 146.434 231.172 146.434C232.344 145.066 232.93 144.09 232.93 143.504C233.125 142.723 233.613 142.332 234.395 142.332L236.445 142.918ZM231.758 147.605C231.367 148.582 230.879 149.363 230.293 149.949C229.902 150.34 229.512 150.926 229.121 151.707C228.73 150.34 228.633 149.363 228.828 148.777C229.023 147.996 229.316 147.117 229.707 146.141L231.758 147.605ZM222.383 142.332C220.82 142.918 219.551 143.895 218.574 145.262C217.793 146.434 216.328 146.922 214.18 146.727L216.23 144.09C215.645 143.895 215.449 143.504 215.645 142.918C215.84 142.137 216.23 141.551 216.816 141.16C217.402 140.574 218.086 140.281 218.867 140.281C219.844 140.086 220.625 140.281 221.211 140.867L222.383 142.332ZM234.98 161.961C233.027 162.352 231.855 162.645 231.465 162.84C231.074 163.035 230.586 162.938 230 162.547C231.367 162.742 232.441 162.156 233.223 160.789L234.98 161.961ZM229.121 152.879C227.363 154.246 226.191 155.223 225.605 155.809C225.02 156.395 224.238 156.297 223.262 155.516C224.629 154.344 225.02 153.465 224.434 152.879C223.848 152.098 224.238 151.609 225.605 151.414C226.387 152.977 226.973 153.562 227.363 153.172C227.949 152.586 228.535 152.488 229.121 152.879ZM228.828 161.668C227.656 162.449 227.07 163.035 227.07 163.426C227.07 163.816 226.777 164.012 226.191 164.012C226.582 162.449 227.461 161.668 228.828 161.668ZM220.918 158.445C218.574 159.812 217.402 161.18 217.402 162.547C216.23 160.789 215.449 159.422 215.059 158.445C216.23 158.836 217.207 158.641 217.988 157.859C218.965 157.078 219.941 157.273 220.918 158.445ZM232.344 166.941C230.586 167.723 229.316 167.918 228.535 167.527C227.559 169.48 226.094 170.75 224.141 171.336C222.188 171.922 220.234 172.312 218.281 172.508C219.062 171.531 219.648 170.848 220.039 170.457C220.625 170.066 220.723 169.48 220.332 168.699C221.113 168.309 221.699 168.211 222.09 168.406C222.676 168.602 223.164 168.211 223.555 167.234C224.922 166.062 225.801 165.379 226.191 165.184C226.777 164.988 226.875 164.793 226.484 164.598C226.875 164.207 227.363 164.402 227.949 165.184C228.535 165.965 229.023 166.551 229.414 166.941C230.195 166.551 230.586 166.062 230.586 165.477C230.586 164.695 230.391 164.109 230 163.719C231.367 164.695 232.051 165.281 232.051 165.477C232.246 165.672 232.344 166.16 232.344 166.941ZM227.07 189.5C226.289 189.891 225.508 190.184 224.727 190.379C224.141 190.574 223.457 190.867 222.676 191.258C224.629 190.867 225.898 189.891 226.484 188.328L227.07 189.5ZM229.414 194.773C227.852 194.188 226.582 194.188 225.605 194.773C224.824 195.945 224.141 196.629 223.555 196.824C223.164 197.02 222.773 197.02 222.383 196.824C221.992 195.848 221.406 195.555 220.625 195.945C220.039 196.141 219.258 196.336 218.281 196.531C219.258 194.969 219.941 194.09 220.332 193.895C220.723 193.504 221.309 193.309 222.09 193.309C223.652 191.941 224.922 191.258 225.898 191.258L228.828 193.309L229.414 194.773ZM232.051 207.371C230.684 208.934 229.902 209.422 229.707 208.836C229.512 208.25 229.121 207.859 228.535 207.664C229.316 206.102 229.902 205.125 230.293 204.734C230.684 204.344 231.074 204.344 231.465 204.734L232.051 207.371ZM215.938 188.914C216.328 189.5 216.328 189.891 215.938 190.086C215.742 190.281 215.352 190.379 214.766 190.379C214.18 190.379 213.496 190.477 212.715 190.672C212.129 190.672 211.738 190.965 211.543 191.551C209.98 190.965 209.199 189.988 209.199 188.621C211.348 188.621 212.715 188.621 213.301 188.621C213.887 188.621 214.277 188.914 214.473 189.5L215.938 188.914ZM109.883 107.762C108.711 109.91 107.832 110.984 107.246 110.984C106.66 110.984 106.465 110.594 106.66 109.812C107.637 110.008 108.125 109.715 108.125 108.934C108.32 107.957 108.906 107.566 109.883 107.762ZM114.277 124.168L111.641 122.117C112.031 122.117 112.52 122.312 113.105 122.703C113.691 122.898 114.082 123.387 114.277 124.168ZM104.609 113.035C103.242 113.816 102.266 114.598 101.68 115.379C101.094 114.598 101.191 113.914 101.973 113.328C102.949 112.742 103.828 112.645 104.609 113.035ZM111.055 125.633C108.516 126.414 106.953 127.586 106.367 129.148C105.586 128.758 105 128.855 104.609 129.441C104.219 129.832 103.438 129.832 102.266 129.441C103.242 129.441 103.926 128.953 104.316 127.977C104.707 126.805 105.391 125.926 106.367 125.34C108.125 124.949 109.102 124.363 109.297 123.582L111.055 125.633ZM138.008 179.539C137.422 180.125 136.738 180.32 135.957 180.125C135.176 179.734 134.492 179.734 133.906 180.125C134.688 179.734 135.371 179.441 135.957 179.246C136.543 178.855 136.836 178.27 136.836 177.488L138.008 179.539ZM135.371 182.469C133.027 183.25 132.051 183.738 132.441 183.934C132.832 184.129 132.93 184.422 132.734 184.812C132.148 185.203 131.465 185.398 130.684 185.398C129.902 185.203 129.609 185.594 129.805 186.57C128.633 184.812 128.828 183.641 130.391 183.055C131.562 181.297 132.441 180.711 133.027 181.297C133.613 181.688 134.395 182.078 135.371 182.469Z" fill="black"/>
</svg>
